solid OpenSCAD_Model
  facet normal 0 0 -1
    outer loop
      vertex -1.875 -8.3325 1.77
      vertex -1.25 -7.6675 1.77
      vertex -1.25 -8.3325 1.77
    endloop
  endfacet
  facet normal -0 0 -1
    outer loop
      vertex -1.25 -7.6675 1.77
      vertex -1.875 -8.3325 1.77
      vertex -1.875 -7.6675 1.77
    endloop
  endfacet
  facet normal 0 0 -1
    outer loop
      vertex -1.875 8.3325 0
      vertex -1.25 9 0
      vertex -1.25 8.3325 0
    endloop
  endfacet
  facet normal -0 0 -1
    outer loop
      vertex -1.25 9 0
      vertex -1.875 8.3325 0
      vertex -1.875 9 0
    endloop
  endfacet
  facet normal 0 0 -1
    outer loop
      vertex -1.875 -9 0
      vertex -1.25 -8.3325 0
      vertex -1.25 -9 0
    endloop
  endfacet
  facet normal -0 0 -1
    outer loop
      vertex -1.25 -8.3325 0
      vertex -1.875 -9 0
      vertex -1.875 -8.3325 0
    endloop
  endfacet
  facet normal 0 0 -1
    outer loop
      vertex -1.875 -7.6675 0
      vertex -1.25 7.6675 0
      vertex -1.25 -7.6675 0
    endloop
  endfacet
  facet normal -0 0 -1
    outer loop
      vertex -1.25 7.6675 0
      vertex -1.875 -7.6675 0
      vertex -1.875 7.6675 0
    endloop
  endfacet
  facet normal -1 0 0
    outer loop
      vertex -1.875 -8.3325 0
      vertex -1.875 -9 0
      vertex -1.875 -8.3325 1.77
    endloop
  endfacet
  facet normal -1 0 0
    outer loop
      vertex -1.875 7.6675 0
      vertex -1.875 5.2075 2.625
      vertex -1.875 7.6675 1.77
    endloop
  endfacet
  facet normal -1 0 0
    outer loop
      vertex -1.875 7.6675 0
      vertex -1.875 4.5425 2.625
      vertex -1.875 5.2075 2.625
    endloop
  endfacet
  facet normal -1 0 0
    outer loop
      vertex -1.875 4.5425 2.625
      vertex -1.875 1.9575 2.625
      vertex -1.875 4.5425 3.5
    endloop
  endfacet
  facet normal -1 0 0
    outer loop
      vertex -1.875 7.6675 0
      vertex -1.875 1.9575 2.625
      vertex -1.875 4.5425 2.625
    endloop
  endfacet
  facet normal -1 0 0
    outer loop
      vertex -1.875 7.6675 0
      vertex -1.875 1.2925 2.625
      vertex -1.875 1.9575 2.625
    endloop
  endfacet
  facet normal -1 0 0
    outer loop
      vertex -1.875 1.2925 2.625
      vertex -1.875 -1.2925 2.625
      vertex -1.875 1.2925 3.5
    endloop
  endfacet
  facet normal -1 0 0
    outer loop
      vertex -1.875 7.6675 0
      vertex -1.875 -1.2925 2.625
      vertex -1.875 1.2925 2.625
    endloop
  endfacet
  facet normal -1 0 0
    outer loop
      vertex -1.875 -7.6675 0
      vertex -1.875 -1.2925 2.625
      vertex -1.875 7.6675 0
    endloop
  endfacet
  facet normal -1 0 0
    outer loop
      vertex -1.875 -1.9575 2.625
      vertex -1.875 -4.5425 2.625
      vertex -1.875 -1.9575 3.5
    endloop
  endfacet
  facet normal -1 -0 0
    outer loop
      vertex -1.875 -1.2925 2.625
      vertex -1.875 -7.6675 0
      vertex -1.875 -1.9575 2.625
    endloop
  endfacet
  facet normal -1 -0 0
    outer loop
      vertex -1.875 -1.9575 2.625
      vertex -1.875 -7.6675 0
      vertex -1.875 -4.5425 2.625
    endloop
  endfacet
  facet normal -1 -0 0
    outer loop
      vertex -1.875 -4.5425 2.625
      vertex -1.875 -7.6675 0
      vertex -1.875 -5.2075 2.625
    endloop
  endfacet
  facet normal -1 0 0
    outer loop
      vertex -1.875 -7.6675 1.77
      vertex -1.875 -5.2075 2.625
      vertex -1.875 -7.6675 0
    endloop
  endfacet
  facet normal -1 -0 0
    outer loop
      vertex -1.875 -5.2075 2.625
      vertex -1.875 -7.6675 1.77
      vertex -1.875 -5.2075 3.5
    endloop
  endfacet
  facet normal -1 0 0
    outer loop
      vertex -1.875 -9 3.5
      vertex -1.875 -7.6675 1.77
      vertex -1.875 -8.3325 1.77
    endloop
  endfacet
  facet normal -1 0 0
    outer loop
      vertex -1.875 -7.6675 1.77
      vertex -1.875 -9 3.5
      vertex -1.875 -5.2075 3.5
    endloop
  endfacet
  facet normal -1 0 0
    outer loop
      vertex -1.875 -9 3.5
      vertex -1.875 -8.3325 1.77
      vertex -1.875 -9 0
    endloop
  endfacet
  facet normal -1 0 0
    outer loop
      vertex -1.875 8.3325 1.77
      vertex -1.875 9 0
      vertex -1.875 8.3325 0
    endloop
  endfacet
  facet normal -1 0 0
    outer loop
      vertex -1.875 9 0
      vertex -1.875 8.3325 1.77
      vertex -1.875 9 3.5
    endloop
  endfacet
  facet normal -1 0 0
    outer loop
      vertex -1.875 7.6675 1.77
      vertex -1.875 9 3.5
      vertex -1.875 8.3325 1.77
    endloop
  endfacet
  facet normal -1 0 0
    outer loop
      vertex -1.875 5.2075 3.5
      vertex -1.875 7.6675 1.77
      vertex -1.875 5.2075 2.625
    endloop
  endfacet
  facet normal -1 0 0
    outer loop
      vertex -1.875 7.6675 1.77
      vertex -1.875 5.2075 3.5
      vertex -1.875 9 3.5
    endloop
  endfacet
  facet normal -1 -0 0
    outer loop
      vertex -1.875 4.5425 3.5
      vertex -1.875 1.9575 2.625
      vertex -1.875 1.9575 3.5
    endloop
  endfacet
  facet normal -1 -0 0
    outer loop
      vertex -1.875 1.2925 3.5
      vertex -1.875 -1.2925 2.625
      vertex -1.875 -1.2925 3.5
    endloop
  endfacet
  facet normal -1 -0 0
    outer loop
      vertex -1.875 -1.9575 3.5
      vertex -1.875 -4.5425 2.625
      vertex -1.875 -4.5425 3.5
    endloop
  endfacet
  facet normal 0 -1 0
    outer loop
      vertex -1.875 -7.6675 0
      vertex -1.25 -7.6675 1.77
      vertex -1.875 -7.6675 1.77
    endloop
  endfacet
  facet normal 0 -1 -0
    outer loop
      vertex -1.25 -7.6675 1.77
      vertex -1.875 -7.6675 0
      vertex -1.25 -7.6675 0
    endloop
  endfacet
  facet normal 0 1 -0
    outer loop
      vertex -1.25 -8.3325 0
      vertex -1.875 -8.3325 1.77
      vertex -1.25 -8.3325 1.77
    endloop
  endfacet
  facet normal 0 1 0
    outer loop
      vertex -1.875 -8.3325 1.77
      vertex -1.25 -8.3325 0
      vertex -1.875 -8.3325 0
    endloop
  endfacet
  facet normal 0 0 -1
    outer loop
      vertex -1.875 7.6675 1.77
      vertex -1.25 8.3325 1.77
      vertex -1.25 7.6675 1.77
    endloop
  endfacet
  facet normal -0 0 -1
    outer loop
      vertex -1.25 8.3325 1.77
      vertex -1.875 7.6675 1.77
      vertex -1.875 8.3325 1.77
    endloop
  endfacet
  facet normal 0 -1 0
    outer loop
      vertex -1.875 8.3325 0
      vertex -1.25 8.3325 1.77
      vertex -1.875 8.3325 1.77
    endloop
  endfacet
  facet normal 0 -1 -0
    outer loop
      vertex -1.25 8.3325 1.77
      vertex -1.875 8.3325 0
      vertex -1.25 8.3325 0
    endloop
  endfacet
  facet normal 0 1 -0
    outer loop
      vertex -1.25 7.6675 0
      vertex -1.875 7.6675 1.77
      vertex -1.25 7.6675 1.77
    endloop
  endfacet
  facet normal 0 1 0
    outer loop
      vertex -1.875 7.6675 1.77
      vertex -1.25 7.6675 0
      vertex -1.875 7.6675 0
    endloop
  endfacet
  facet normal -0 0 1
    outer loop
      vertex -1.875 -4.5425 2.625
      vertex -1.25 -5.2075 2.625
      vertex -1.25 -4.5425 2.625
    endloop
  endfacet
  facet normal 0 0 1
    outer loop
      vertex -1.25 -5.2075 2.625
      vertex -1.875 -4.5425 2.625
      vertex -1.875 -5.2075 2.625
    endloop
  endfacet
  facet normal 0 -1 0
    outer loop
      vertex -1.875 -4.5425 2.625
      vertex -1.25 -4.5425 3.5
      vertex -1.875 -4.5425 3.5
    endloop
  endfacet
  facet normal 0 -1 -0
    outer loop
      vertex -1.25 -4.5425 3.5
      vertex -1.875 -4.5425 2.625
      vertex -1.25 -4.5425 2.625
    endloop
  endfacet
  facet normal 0 1 -0
    outer loop
      vertex -1.25 -5.2075 2.625
      vertex -1.875 -5.2075 3.5
      vertex -1.25 -5.2075 3.5
    endloop
  endfacet
  facet normal 0 1 0
    outer loop
      vertex -1.875 -5.2075 3.5
      vertex -1.25 -5.2075 2.625
      vertex -1.875 -5.2075 2.625
    endloop
  endfacet
  facet normal -0 0 1
    outer loop
      vertex -1.875 -1.2925 2.625
      vertex -1.25 -1.9575 2.625
      vertex -1.25 -1.2925 2.625
    endloop
  endfacet
  facet normal 0 0 1
    outer loop
      vertex -1.25 -1.9575 2.625
      vertex -1.875 -1.2925 2.625
      vertex -1.875 -1.9575 2.625
    endloop
  endfacet
  facet normal 0 -1 0
    outer loop
      vertex -1.875 -1.2925 2.625
      vertex -1.25 -1.2925 3.5
      vertex -1.875 -1.2925 3.5
    endloop
  endfacet
  facet normal 0 -1 -0
    outer loop
      vertex -1.25 -1.2925 3.5
      vertex -1.875 -1.2925 2.625
      vertex -1.25 -1.2925 2.625
    endloop
  endfacet
  facet normal 0 1 -0
    outer loop
      vertex -1.25 -1.9575 2.625
      vertex -1.875 -1.9575 3.5
      vertex -1.25 -1.9575 3.5
    endloop
  endfacet
  facet normal 0 1 0
    outer loop
      vertex -1.875 -1.9575 3.5
      vertex -1.25 -1.9575 2.625
      vertex -1.875 -1.9575 2.625
    endloop
  endfacet
  facet normal -0 0 1
    outer loop
      vertex -1.875 1.9575 2.625
      vertex -1.25 1.2925 2.625
      vertex -1.25 1.9575 2.625
    endloop
  endfacet
  facet normal 0 0 1
    outer loop
      vertex -1.25 1.2925 2.625
      vertex -1.875 1.9575 2.625
      vertex -1.875 1.2925 2.625
    endloop
  endfacet
  facet normal 0 -1 0
    outer loop
      vertex -1.875 1.9575 2.625
      vertex -1.25 1.9575 3.5
      vertex -1.875 1.9575 3.5
    endloop
  endfacet
  facet normal 0 -1 -0
    outer loop
      vertex -1.25 1.9575 3.5
      vertex -1.875 1.9575 2.625
      vertex -1.25 1.9575 2.625
    endloop
  endfacet
  facet normal 0 1 -0
    outer loop
      vertex -1.25 1.2925 2.625
      vertex -1.875 1.2925 3.5
      vertex -1.25 1.2925 3.5
    endloop
  endfacet
  facet normal 0 1 0
    outer loop
      vertex -1.875 1.2925 3.5
      vertex -1.25 1.2925 2.625
      vertex -1.875 1.2925 2.625
    endloop
  endfacet
  facet normal -0 0 1
    outer loop
      vertex -1.875 5.2075 2.625
      vertex -1.25 4.5425 2.625
      vertex -1.25 5.2075 2.625
    endloop
  endfacet
  facet normal 0 0 1
    outer loop
      vertex -1.25 4.5425 2.625
      vertex -1.875 5.2075 2.625
      vertex -1.875 4.5425 2.625
    endloop
  endfacet
  facet normal 0 -1 0
    outer loop
      vertex -1.875 5.2075 2.625
      vertex -1.25 5.2075 3.5
      vertex -1.875 5.2075 3.5
    endloop
  endfacet
  facet normal 0 -1 -0
    outer loop
      vertex -1.25 5.2075 3.5
      vertex -1.875 5.2075 2.625
      vertex -1.25 5.2075 2.625
    endloop
  endfacet
  facet normal 0 1 -0
    outer loop
      vertex -1.25 4.5425 2.625
      vertex -1.875 4.5425 3.5
      vertex -1.25 4.5425 3.5
    endloop
  endfacet
  facet normal 0 1 0
    outer loop
      vertex -1.875 4.5425 3.5
      vertex -1.25 4.5425 2.625
      vertex -1.875 4.5425 2.625
    endloop
  endfacet
  facet normal 1 0 0
    outer loop
      vertex -1.25 -5.2075 3.5
      vertex -1.25 -7.6675 1.77
      vertex -1.25 -5.2075 2.625
    endloop
  endfacet
  facet normal 1 -0 0
    outer loop
      vertex -1.25 -9 3.5
      vertex -1.25 -7.6675 1.77
      vertex -1.25 -5.2075 3.5
    endloop
  endfacet
  facet normal 1 0 0
    outer loop
      vertex -1.25 -7.6675 1.77
      vertex -1.25 -9 3.5
      vertex -1.25 -8.3325 1.77
    endloop
  endfacet
  facet normal 1 0 0
    outer loop
      vertex -1.25 -9 0
      vertex -1.25 -8.3325 1.77
      vertex -1.25 -9 3.5
    endloop
  endfacet
  facet normal 1 0 0
    outer loop
      vertex -1.25 -8.3325 1.77
      vertex -1.25 -9 0
      vertex -1.25 -8.3325 0
    endloop
  endfacet
  facet normal 1 0 0
    outer loop
      vertex -1.25 -1.9575 3.5
      vertex -1.25 -4.5425 3.5
      vertex -1.25 -1.9575 2.625
    endloop
  endfacet
  facet normal 1 0 0
    outer loop
      vertex -1.25 1.2925 3.5
      vertex -1.25 -1.2925 3.5
      vertex -1.25 1.2925 2.625
    endloop
  endfacet
  facet normal 1 0 0
    outer loop
      vertex -1.25 4.5425 3.5
      vertex -1.25 1.9575 3.5
      vertex -1.25 4.5425 2.625
    endloop
  endfacet
  facet normal 1 0 0
    outer loop
      vertex -1.25 9 3.5
      vertex -1.25 8.3325 1.77
      vertex -1.25 9 0
    endloop
  endfacet
  facet normal 1 0 0
    outer loop
      vertex -1.25 9 3.5
      vertex -1.25 7.6675 1.77
      vertex -1.25 8.3325 1.77
    endloop
  endfacet
  facet normal 1 -0 0
    outer loop
      vertex -1.25 5.2075 3.5
      vertex -1.25 7.6675 1.77
      vertex -1.25 9 3.5
    endloop
  endfacet
  facet normal 1 -0 0
    outer loop
      vertex -1.25 5.2075 2.625
      vertex -1.25 7.6675 1.77
      vertex -1.25 5.2075 3.5
    endloop
  endfacet
  facet normal 1 0 0
    outer loop
      vertex -1.25 7.6675 1.77
      vertex -1.25 5.2075 2.625
      vertex -1.25 7.6675 0
    endloop
  endfacet
  facet normal 1 -0 0
    outer loop
      vertex -1.25 4.5425 2.625
      vertex -1.25 7.6675 0
      vertex -1.25 5.2075 2.625
    endloop
  endfacet
  facet normal 1 0 0
    outer loop
      vertex -1.25 1.9575 2.625
      vertex -1.25 4.5425 2.625
      vertex -1.25 1.9575 3.5
    endloop
  endfacet
  facet normal 1 0 0
    outer loop
      vertex -1.25 4.5425 2.625
      vertex -1.25 1.9575 2.625
      vertex -1.25 7.6675 0
    endloop
  endfacet
  facet normal 1 -0 0
    outer loop
      vertex -1.25 1.2925 2.625
      vertex -1.25 7.6675 0
      vertex -1.25 1.9575 2.625
    endloop
  endfacet
  facet normal 1 0 0
    outer loop
      vertex -1.25 -1.2925 2.625
      vertex -1.25 1.2925 2.625
      vertex -1.25 -1.2925 3.5
    endloop
  endfacet
  facet normal 1 0 0
    outer loop
      vertex -1.25 1.2925 2.625
      vertex -1.25 -1.2925 2.625
      vertex -1.25 7.6675 0
    endloop
  endfacet
  facet normal 1 0 0
    outer loop
      vertex -1.25 -7.6675 0
      vertex -1.25 -1.2925 2.625
      vertex -1.25 -1.9575 2.625
    endloop
  endfacet
  facet normal 1 0 0
    outer loop
      vertex -1.25 -4.5425 2.625
      vertex -1.25 -1.9575 2.625
      vertex -1.25 -4.5425 3.5
    endloop
  endfacet
  facet normal 1 0 0
    outer loop
      vertex -1.25 -7.6675 0
      vertex -1.25 -1.9575 2.625
      vertex -1.25 -4.5425 2.625
    endloop
  endfacet
  facet normal 1 0 0
    outer loop
      vertex -1.25 -7.6675 0
      vertex -1.25 -4.5425 2.625
      vertex -1.25 -5.2075 2.625
    endloop
  endfacet
  facet normal 1 0 0
    outer loop
      vertex -1.25 -7.6675 0
      vertex -1.25 -5.2075 2.625
      vertex -1.25 -7.6675 1.77
    endloop
  endfacet
  facet normal 1 0 0
    outer loop
      vertex -1.25 -1.2925 2.625
      vertex -1.25 -7.6675 0
      vertex -1.25 7.6675 0
    endloop
  endfacet
  facet normal 1 0 0
    outer loop
      vertex -1.25 9 0
      vertex -1.25 8.3325 1.77
      vertex -1.25 8.3325 0
    endloop
  endfacet
  facet normal -0 0 1
    outer loop
      vertex -1.875 9 3.5
      vertex -1.25 5.2075 3.5
      vertex -1.25 9 3.5
    endloop
  endfacet
  facet normal 0 0 1
    outer loop
      vertex -1.25 5.2075 3.5
      vertex -1.875 9 3.5
      vertex -1.875 5.2075 3.5
    endloop
  endfacet
  facet normal -0 0 1
    outer loop
      vertex -1.875 -5.2075 3.5
      vertex -1.25 -9 3.5
      vertex -1.25 -5.2075 3.5
    endloop
  endfacet
  facet normal 0 0 1
    outer loop
      vertex -1.25 -9 3.5
      vertex -1.875 -5.2075 3.5
      vertex -1.875 -9 3.5
    endloop
  endfacet
  facet normal -0 0 1
    outer loop
      vertex -1.875 -1.9575 3.5
      vertex -1.25 -4.5425 3.5
      vertex -1.25 -1.9575 3.5
    endloop
  endfacet
  facet normal 0 0 1
    outer loop
      vertex -1.25 -4.5425 3.5
      vertex -1.875 -1.9575 3.5
      vertex -1.875 -4.5425 3.5
    endloop
  endfacet
  facet normal -0 0 1
    outer loop
      vertex -1.875 1.2925 3.5
      vertex -1.25 -1.2925 3.5
      vertex -1.25 1.2925 3.5
    endloop
  endfacet
  facet normal 0 0 1
    outer loop
      vertex -1.25 -1.2925 3.5
      vertex -1.875 1.2925 3.5
      vertex -1.875 -1.2925 3.5
    endloop
  endfacet
  facet normal -0 0 1
    outer loop
      vertex -1.875 4.5425 3.5
      vertex -1.25 1.9575 3.5
      vertex -1.25 4.5425 3.5
    endloop
  endfacet
  facet normal 0 0 1
    outer loop
      vertex -1.25 1.9575 3.5
      vertex -1.875 4.5425 3.5
      vertex -1.875 1.9575 3.5
    endloop
  endfacet
  facet normal 0 1 -0
    outer loop
      vertex -1.25 9 0
      vertex -1.875 9 3.5
      vertex -1.25 9 3.5
    endloop
  endfacet
  facet normal 0 1 0
    outer loop
      vertex -1.875 9 3.5
      vertex -1.25 9 0
      vertex -1.875 9 0
    endloop
  endfacet
  facet normal 0 -1 0
    outer loop
      vertex -1.875 -9 0
      vertex -1.25 -9 3.5
      vertex -1.875 -9 3.5
    endloop
  endfacet
  facet normal 0 -1 -0
    outer loop
      vertex -1.25 -9 3.5
      vertex -1.875 -9 0
      vertex -1.25 -9 0
    endloop
  endfacet
endsolid OpenSCAD_Model
