solid OpenSCAD_Model
  facet normal 0.991445 -0 0.130526
    outer loop
      vertex 0.965926 -8.938 0.258819
      vertex 1 8.938 0
      vertex 0.965926 8.938 0.258819
    endloop
  endfacet
  facet normal 0.991445 0 0.130526
    outer loop
      vertex 1 8.938 0
      vertex 0.965926 -8.938 0.258819
      vertex 1 -8.938 0
    endloop
  endfacet
  facet normal 0.923879 -0 0.382685
    outer loop
      vertex 0.866025 -8.938 0.5
      vertex 0.965926 8.938 0.258819
      vertex 0.866025 8.938 0.5
    endloop
  endfacet
  facet normal 0.923879 0 0.382685
    outer loop
      vertex 0.965926 8.938 0.258819
      vertex 0.866025 -8.938 0.5
      vertex 0.965926 -8.938 0.258819
    endloop
  endfacet
  facet normal 0.793355 -0 0.60876
    outer loop
      vertex 0.707107 -8.938 0.707107
      vertex 0.866025 8.938 0.5
      vertex 0.707107 8.938 0.707107
    endloop
  endfacet
  facet normal 0.793355 0 0.60876
    outer loop
      vertex 0.866025 8.938 0.5
      vertex 0.707107 -8.938 0.707107
      vertex 0.866025 -8.938 0.5
    endloop
  endfacet
  facet normal 0.60876 0 0.793355
    outer loop
      vertex 0.5 8.938 0.866025
      vertex 0.707107 -8.938 0.707107
      vertex 0.707107 8.938 0.707107
    endloop
  endfacet
  facet normal 0.60876 0 0.793355
    outer loop
      vertex 0.707107 -8.938 0.707107
      vertex 0.5 8.938 0.866025
      vertex 0.5 -8.938 0.866025
    endloop
  endfacet
  facet normal 0.382685 0 0.923879
    outer loop
      vertex 0.258819 8.938 0.965926
      vertex 0.5 -8.938 0.866025
      vertex 0.5 8.938 0.866025
    endloop
  endfacet
  facet normal 0.382685 0 0.923879
    outer loop
      vertex 0.5 -8.938 0.866025
      vertex 0.258819 8.938 0.965926
      vertex 0.258819 -8.938 0.965926
    endloop
  endfacet
  facet normal 0.130526 0 0.991445
    outer loop
      vertex 0 8.938 1
      vertex 0.258819 -8.938 0.965926
      vertex 0.258819 8.938 0.965926
    endloop
  endfacet
  facet normal 0.130526 0 0.991445
    outer loop
      vertex 0.258819 -8.938 0.965926
      vertex 0 8.938 1
      vertex 0 -8.938 1
    endloop
  endfacet
  facet normal -0.130526 0 0.991445
    outer loop
      vertex -0.258819 8.938 0.965926
      vertex 0 -8.938 1
      vertex 0 8.938 1
    endloop
  endfacet
  facet normal -0.130526 0 0.991445
    outer loop
      vertex 0 -8.938 1
      vertex -0.258819 8.938 0.965926
      vertex -0.258819 -8.938 0.965926
    endloop
  endfacet
  facet normal -0.382685 0 0.923879
    outer loop
      vertex -0.5 8.938 0.866025
      vertex -0.258819 -8.938 0.965926
      vertex -0.258819 8.938 0.965926
    endloop
  endfacet
  facet normal -0.382685 0 0.923879
    outer loop
      vertex -0.258819 -8.938 0.965926
      vertex -0.5 8.938 0.866025
      vertex -0.5 -8.938 0.866025
    endloop
  endfacet
  facet normal -0.60876 0 0.793355
    outer loop
      vertex -0.707107 8.938 0.707107
      vertex -0.5 -8.938 0.866025
      vertex -0.5 8.938 0.866025
    endloop
  endfacet
  facet normal -0.60876 0 0.793355
    outer loop
      vertex -0.5 -8.938 0.866025
      vertex -0.707107 8.938 0.707107
      vertex -0.707107 -8.938 0.707107
    endloop
  endfacet
  facet normal -0.793355 0 0.60876
    outer loop
      vertex -0.866025 -8.938 0.5
      vertex -0.707107 8.938 0.707107
      vertex -0.866025 8.938 0.5
    endloop
  endfacet
  facet normal -0.793355 0 0.60876
    outer loop
      vertex -0.707107 8.938 0.707107
      vertex -0.866025 -8.938 0.5
      vertex -0.707107 -8.938 0.707107
    endloop
  endfacet
  facet normal -0.923879 0 0.382685
    outer loop
      vertex -0.965926 -8.938 0.258819
      vertex -0.866025 8.938 0.5
      vertex -0.965926 8.938 0.258819
    endloop
  endfacet
  facet normal -0.923879 0 0.382685
    outer loop
      vertex -0.866025 8.938 0.5
      vertex -0.965926 -8.938 0.258819
      vertex -0.866025 -8.938 0.5
    endloop
  endfacet
  facet normal -0.991445 0 0.130526
    outer loop
      vertex -1 -8.938 0
      vertex -0.965926 8.938 0.258819
      vertex -1 8.938 0
    endloop
  endfacet
  facet normal -0.991445 0 0.130526
    outer loop
      vertex -0.965926 8.938 0.258819
      vertex -1 -8.938 0
      vertex -0.965926 -8.938 0.258819
    endloop
  endfacet
  facet normal -0.991445 0 -0.130526
    outer loop
      vertex -0.965926 -8.938 -0.258819
      vertex -1 8.938 0
      vertex -0.965926 8.938 -0.258819
    endloop
  endfacet
  facet normal -0.991445 -0 -0.130526
    outer loop
      vertex -1 8.938 0
      vertex -0.965926 -8.938 -0.258819
      vertex -1 -8.938 0
    endloop
  endfacet
  facet normal -0.923879 0 -0.382685
    outer loop
      vertex -0.866025 -8.938 -0.5
      vertex -0.965926 8.938 -0.258819
      vertex -0.866025 8.938 -0.5
    endloop
  endfacet
  facet normal -0.923879 -0 -0.382685
    outer loop
      vertex -0.965926 8.938 -0.258819
      vertex -0.866025 -8.938 -0.5
      vertex -0.965926 -8.938 -0.258819
    endloop
  endfacet
  facet normal -0.793355 0 -0.60876
    outer loop
      vertex -0.707107 -8.938 -0.707107
      vertex -0.866025 8.938 -0.5
      vertex -0.707107 8.938 -0.707107
    endloop
  endfacet
  facet normal -0.793355 -0 -0.60876
    outer loop
      vertex -0.866025 8.938 -0.5
      vertex -0.707107 -8.938 -0.707107
      vertex -0.866025 -8.938 -0.5
    endloop
  endfacet
  facet normal -0.60876 0 -0.793355
    outer loop
      vertex -0.707107 -8.938 -0.707107
      vertex -0.5 8.938 -0.866025
      vertex -0.5 -8.938 -0.866025
    endloop
  endfacet
  facet normal -0.60876 0 -0.793355
    outer loop
      vertex -0.5 8.938 -0.866025
      vertex -0.707107 -8.938 -0.707107
      vertex -0.707107 8.938 -0.707107
    endloop
  endfacet
  facet normal -0.382685 0 -0.923879
    outer loop
      vertex -0.5 -8.938 -0.866025
      vertex -0.258819 8.938 -0.965926
      vertex -0.258819 -8.938 -0.965926
    endloop
  endfacet
  facet normal -0.382685 0 -0.923879
    outer loop
      vertex -0.258819 8.938 -0.965926
      vertex -0.5 -8.938 -0.866025
      vertex -0.5 8.938 -0.866025
    endloop
  endfacet
  facet normal -0.130526 0 -0.991445
    outer loop
      vertex -0.258819 -8.938 -0.965926
      vertex 0 8.938 -1
      vertex 0 -8.938 -1
    endloop
  endfacet
  facet normal -0.130526 0 -0.991445
    outer loop
      vertex 0 8.938 -1
      vertex -0.258819 -8.938 -0.965926
      vertex -0.258819 8.938 -0.965926
    endloop
  endfacet
  facet normal 0.130526 0 -0.991445
    outer loop
      vertex 0 -8.938 -1
      vertex 0.258819 8.938 -0.965926
      vertex 0.258819 -8.938 -0.965926
    endloop
  endfacet
  facet normal 0.130526 0 -0.991445
    outer loop
      vertex 0.258819 8.938 -0.965926
      vertex 0 -8.938 -1
      vertex 0 8.938 -1
    endloop
  endfacet
  facet normal 0.382685 0 -0.923879
    outer loop
      vertex 0.258819 -8.938 -0.965926
      vertex 0.5 8.938 -0.866025
      vertex 0.5 -8.938 -0.866025
    endloop
  endfacet
  facet normal 0.382685 0 -0.923879
    outer loop
      vertex 0.5 8.938 -0.866025
      vertex 0.258819 -8.938 -0.965926
      vertex 0.258819 8.938 -0.965926
    endloop
  endfacet
  facet normal 0.60876 0 -0.793355
    outer loop
      vertex 0.5 -8.938 -0.866025
      vertex 0.707107 8.938 -0.707107
      vertex 0.707107 -8.938 -0.707107
    endloop
  endfacet
  facet normal 0.60876 0 -0.793355
    outer loop
      vertex 0.707107 8.938 -0.707107
      vertex 0.5 -8.938 -0.866025
      vertex 0.5 8.938 -0.866025
    endloop
  endfacet
  facet normal 0.793355 0 -0.60876
    outer loop
      vertex 0.866025 -8.938 -0.5
      vertex 0.707107 8.938 -0.707107
      vertex 0.866025 8.938 -0.5
    endloop
  endfacet
  facet normal 0.793355 0 -0.60876
    outer loop
      vertex 0.707107 8.938 -0.707107
      vertex 0.866025 -8.938 -0.5
      vertex 0.707107 -8.938 -0.707107
    endloop
  endfacet
  facet normal 0.923879 0 -0.382685
    outer loop
      vertex 0.965926 -8.938 -0.258819
      vertex 0.866025 8.938 -0.5
      vertex 0.965926 8.938 -0.258819
    endloop
  endfacet
  facet normal 0.923879 0 -0.382685
    outer loop
      vertex 0.866025 8.938 -0.5
      vertex 0.965926 -8.938 -0.258819
      vertex 0.866025 -8.938 -0.5
    endloop
  endfacet
  facet normal 0.991445 0 -0.130526
    outer loop
      vertex 1 -8.938 0
      vertex 0.965926 8.938 -0.258819
      vertex 1 8.938 0
    endloop
  endfacet
  facet normal 0.991445 0 -0.130526
    outer loop
      vertex 0.965926 8.938 -0.258819
      vertex 1 -8.938 0
      vertex 0.965926 -8.938 -0.258819
    endloop
  endfacet
  facet normal 0 1 0
    outer loop
      vertex 0.258819 8.938 0.965926
      vertex -0.258819 8.938 0.965926
      vertex 0 8.938 1
    endloop
  endfacet
  facet normal 0 1 0
    outer loop
      vertex 0.5 8.938 0.866025
      vertex -0.258819 8.938 0.965926
      vertex 0.258819 8.938 0.965926
    endloop
  endfacet
  facet normal 0 1 0
    outer loop
      vertex 0.5 8.938 0.866025
      vertex -0.5 8.938 0.866025
      vertex -0.258819 8.938 0.965926
    endloop
  endfacet
  facet normal 0 1 0
    outer loop
      vertex 0.707107 8.938 0.707107
      vertex -0.5 8.938 0.866025
      vertex 0.5 8.938 0.866025
    endloop
  endfacet
  facet normal 0 1 0
    outer loop
      vertex 0.707107 8.938 0.707107
      vertex -0.707107 8.938 0.707107
      vertex -0.5 8.938 0.866025
    endloop
  endfacet
  facet normal 0 1 0
    outer loop
      vertex 0.866025 8.938 0.5
      vertex -0.707107 8.938 0.707107
      vertex 0.707107 8.938 0.707107
    endloop
  endfacet
  facet normal 0 1 0
    outer loop
      vertex 0.866025 8.938 0.5
      vertex -0.866025 8.938 0.5
      vertex -0.707107 8.938 0.707107
    endloop
  endfacet
  facet normal 0 1 0
    outer loop
      vertex 0.965926 8.938 0.258819
      vertex -0.866025 8.938 0.5
      vertex 0.866025 8.938 0.5
    endloop
  endfacet
  facet normal 0 1 0
    outer loop
      vertex 0.965926 8.938 0.258819
      vertex -0.965926 8.938 0.258819
      vertex -0.866025 8.938 0.5
    endloop
  endfacet
  facet normal 0 1 0
    outer loop
      vertex 1 8.938 0
      vertex -0.965926 8.938 0.258819
      vertex 0.965926 8.938 0.258819
    endloop
  endfacet
  facet normal 0 1 0
    outer loop
      vertex 1 8.938 0
      vertex -1 8.938 0
      vertex -0.965926 8.938 0.258819
    endloop
  endfacet
  facet normal 0 1 -0
    outer loop
      vertex 0.965926 8.938 -0.258819
      vertex -1 8.938 0
      vertex 1 8.938 0
    endloop
  endfacet
  facet normal 0 1 0
    outer loop
      vertex 0.965926 8.938 -0.258819
      vertex -0.965926 8.938 -0.258819
      vertex -1 8.938 0
    endloop
  endfacet
  facet normal 0 1 -0
    outer loop
      vertex 0.866025 8.938 -0.5
      vertex -0.965926 8.938 -0.258819
      vertex 0.965926 8.938 -0.258819
    endloop
  endfacet
  facet normal 0 1 0
    outer loop
      vertex 0.866025 8.938 -0.5
      vertex -0.866025 8.938 -0.5
      vertex -0.965926 8.938 -0.258819
    endloop
  endfacet
  facet normal 0 1 -0
    outer loop
      vertex 0.707107 8.938 -0.707107
      vertex -0.866025 8.938 -0.5
      vertex 0.866025 8.938 -0.5
    endloop
  endfacet
  facet normal 0 1 0
    outer loop
      vertex 0.707107 8.938 -0.707107
      vertex -0.707107 8.938 -0.707107
      vertex -0.866025 8.938 -0.5
    endloop
  endfacet
  facet normal 0 1 -0
    outer loop
      vertex 0.5 8.938 -0.866025
      vertex -0.707107 8.938 -0.707107
      vertex 0.707107 8.938 -0.707107
    endloop
  endfacet
  facet normal 0 1 0
    outer loop
      vertex 0.5 8.938 -0.866025
      vertex -0.5 8.938 -0.866025
      vertex -0.707107 8.938 -0.707107
    endloop
  endfacet
  facet normal 0 1 -0
    outer loop
      vertex 0.258819 8.938 -0.965926
      vertex -0.5 8.938 -0.866025
      vertex 0.5 8.938 -0.866025
    endloop
  endfacet
  facet normal 0 1 0
    outer loop
      vertex 0.258819 8.938 -0.965926
      vertex -0.258819 8.938 -0.965926
      vertex -0.5 8.938 -0.866025
    endloop
  endfacet
  facet normal -0 1 0
    outer loop
      vertex -0.258819 8.938 -0.965926
      vertex 0.258819 8.938 -0.965926
      vertex 0 8.938 -1
    endloop
  endfacet
  facet normal 0 -1 0
    outer loop
      vertex -0.258819 -8.938 0.965926
      vertex 0.258819 -8.938 0.965926
      vertex 0 -8.938 1
    endloop
  endfacet
  facet normal 0 -1 0
    outer loop
      vertex -0.5 -8.938 0.866025
      vertex 0.258819 -8.938 0.965926
      vertex -0.258819 -8.938 0.965926
    endloop
  endfacet
  facet normal 0 -1 0
    outer loop
      vertex -0.5 -8.938 0.866025
      vertex 0.5 -8.938 0.866025
      vertex 0.258819 -8.938 0.965926
    endloop
  endfacet
  facet normal 0 -1 0
    outer loop
      vertex -0.707107 -8.938 0.707107
      vertex 0.5 -8.938 0.866025
      vertex -0.5 -8.938 0.866025
    endloop
  endfacet
  facet normal 0 -1 0
    outer loop
      vertex -0.707107 -8.938 0.707107
      vertex 0.707107 -8.938 0.707107
      vertex 0.5 -8.938 0.866025
    endloop
  endfacet
  facet normal 0 -1 0
    outer loop
      vertex -0.866025 -8.938 0.5
      vertex 0.707107 -8.938 0.707107
      vertex -0.707107 -8.938 0.707107
    endloop
  endfacet
  facet normal 0 -1 0
    outer loop
      vertex -0.866025 -8.938 0.5
      vertex 0.866025 -8.938 0.5
      vertex 0.707107 -8.938 0.707107
    endloop
  endfacet
  facet normal 0 -1 0
    outer loop
      vertex -0.965926 -8.938 0.258819
      vertex 0.866025 -8.938 0.5
      vertex -0.866025 -8.938 0.5
    endloop
  endfacet
  facet normal 0 -1 0
    outer loop
      vertex -0.965926 -8.938 0.258819
      vertex 0.965926 -8.938 0.258819
      vertex 0.866025 -8.938 0.5
    endloop
  endfacet
  facet normal 0 -1 0
    outer loop
      vertex -1 -8.938 0
      vertex 0.965926 -8.938 0.258819
      vertex -0.965926 -8.938 0.258819
    endloop
  endfacet
  facet normal 0 -1 0
    outer loop
      vertex -1 -8.938 0
      vertex 1 -8.938 0
      vertex 0.965926 -8.938 0.258819
    endloop
  endfacet
  facet normal 0 -1 0
    outer loop
      vertex -0.965926 -8.938 -0.258819
      vertex 1 -8.938 0
      vertex -1 -8.938 0
    endloop
  endfacet
  facet normal 0 -1 0
    outer loop
      vertex -0.965926 -8.938 -0.258819
      vertex 0.965926 -8.938 -0.258819
      vertex 1 -8.938 0
    endloop
  endfacet
  facet normal 0 -1 0
    outer loop
      vertex -0.866025 -8.938 -0.5
      vertex 0.965926 -8.938 -0.258819
      vertex -0.965926 -8.938 -0.258819
    endloop
  endfacet
  facet normal 0 -1 0
    outer loop
      vertex -0.866025 -8.938 -0.5
      vertex 0.866025 -8.938 -0.5
      vertex 0.965926 -8.938 -0.258819
    endloop
  endfacet
  facet normal 0 -1 0
    outer loop
      vertex -0.707107 -8.938 -0.707107
      vertex 0.866025 -8.938 -0.5
      vertex -0.866025 -8.938 -0.5
    endloop
  endfacet
  facet normal 0 -1 0
    outer loop
      vertex -0.707107 -8.938 -0.707107
      vertex 0.707107 -8.938 -0.707107
      vertex 0.866025 -8.938 -0.5
    endloop
  endfacet
  facet normal 0 -1 0
    outer loop
      vertex -0.5 -8.938 -0.866025
      vertex 0.707107 -8.938 -0.707107
      vertex -0.707107 -8.938 -0.707107
    endloop
  endfacet
  facet normal 0 -1 0
    outer loop
      vertex -0.5 -8.938 -0.866025
      vertex 0.5 -8.938 -0.866025
      vertex 0.707107 -8.938 -0.707107
    endloop
  endfacet
  facet normal 0 -1 0
    outer loop
      vertex -0.258819 -8.938 -0.965926
      vertex 0.5 -8.938 -0.866025
      vertex -0.5 -8.938 -0.866025
    endloop
  endfacet
  facet normal 0 -1 0
    outer loop
      vertex -0.258819 -8.938 -0.965926
      vertex 0.258819 -8.938 -0.965926
      vertex 0.5 -8.938 -0.866025
    endloop
  endfacet
  facet normal -0 -1 0
    outer loop
      vertex 0.258819 -8.938 -0.965926
      vertex -0.258819 -8.938 -0.965926
      vertex 0 -8.938 -1
    endloop
  endfacet
endsolid OpenSCAD_Model
