solid OpenSCAD_Model
  facet normal 0.991445 -0 0.130528
    outer loop
      vertex 0.724444 -8.938 0.194114
      vertex 0.75 8.938 0
      vertex 0.724444 8.938 0.194114
    endloop
  endfacet
  facet normal 0.991445 0 0.130528
    outer loop
      vertex 0.75 8.938 0
      vertex 0.724444 -8.938 0.194114
      vertex 0.75 -8.938 0
    endloop
  endfacet
  facet normal 0.92388 -0 0.382682
    outer loop
      vertex 0.649519 -8.938 0.375
      vertex 0.724444 8.938 0.194114
      vertex 0.649519 8.938 0.375
    endloop
  endfacet
  facet normal 0.92388 0 0.382682
    outer loop
      vertex 0.724444 8.938 0.194114
      vertex 0.649519 -8.938 0.375
      vertex 0.724444 -8.938 0.194114
    endloop
  endfacet
  facet normal 0.793353 -0 0.608762
    outer loop
      vertex 0.53033 -8.938 0.53033
      vertex 0.649519 8.938 0.375
      vertex 0.53033 8.938 0.53033
    endloop
  endfacet
  facet normal 0.793353 0 0.608762
    outer loop
      vertex 0.649519 8.938 0.375
      vertex 0.53033 -8.938 0.53033
      vertex 0.649519 -8.938 0.375
    endloop
  endfacet
  facet normal 0.608762 0 0.793353
    outer loop
      vertex 0.375 8.938 0.649519
      vertex 0.53033 -8.938 0.53033
      vertex 0.53033 8.938 0.53033
    endloop
  endfacet
  facet normal 0.608762 0 0.793353
    outer loop
      vertex 0.53033 -8.938 0.53033
      vertex 0.375 8.938 0.649519
      vertex 0.375 -8.938 0.649519
    endloop
  endfacet
  facet normal 0.382682 0 0.92388
    outer loop
      vertex 0.194114 8.938 0.724444
      vertex 0.375 -8.938 0.649519
      vertex 0.375 8.938 0.649519
    endloop
  endfacet
  facet normal 0.382682 0 0.92388
    outer loop
      vertex 0.375 -8.938 0.649519
      vertex 0.194114 8.938 0.724444
      vertex 0.194114 -8.938 0.724444
    endloop
  endfacet
  facet normal 0.130528 0 0.991445
    outer loop
      vertex 0 8.938 0.75
      vertex 0.194114 -8.938 0.724444
      vertex 0.194114 8.938 0.724444
    endloop
  endfacet
  facet normal 0.130528 0 0.991445
    outer loop
      vertex 0.194114 -8.938 0.724444
      vertex 0 8.938 0.75
      vertex 0 -8.938 0.75
    endloop
  endfacet
  facet normal -0.130528 0 0.991445
    outer loop
      vertex -0.194114 8.938 0.724444
      vertex 0 -8.938 0.75
      vertex 0 8.938 0.75
    endloop
  endfacet
  facet normal -0.130528 0 0.991445
    outer loop
      vertex 0 -8.938 0.75
      vertex -0.194114 8.938 0.724444
      vertex -0.194114 -8.938 0.724444
    endloop
  endfacet
  facet normal -0.382682 0 0.92388
    outer loop
      vertex -0.375 8.938 0.649519
      vertex -0.194114 -8.938 0.724444
      vertex -0.194114 8.938 0.724444
    endloop
  endfacet
  facet normal -0.382682 0 0.92388
    outer loop
      vertex -0.194114 -8.938 0.724444
      vertex -0.375 8.938 0.649519
      vertex -0.375 -8.938 0.649519
    endloop
  endfacet
  facet normal -0.608762 0 0.793353
    outer loop
      vertex -0.53033 8.938 0.53033
      vertex -0.375 -8.938 0.649519
      vertex -0.375 8.938 0.649519
    endloop
  endfacet
  facet normal -0.608762 0 0.793353
    outer loop
      vertex -0.375 -8.938 0.649519
      vertex -0.53033 8.938 0.53033
      vertex -0.53033 -8.938 0.53033
    endloop
  endfacet
  facet normal -0.793353 0 0.608762
    outer loop
      vertex -0.649519 -8.938 0.375
      vertex -0.53033 8.938 0.53033
      vertex -0.649519 8.938 0.375
    endloop
  endfacet
  facet normal -0.793353 0 0.608762
    outer loop
      vertex -0.53033 8.938 0.53033
      vertex -0.649519 -8.938 0.375
      vertex -0.53033 -8.938 0.53033
    endloop
  endfacet
  facet normal -0.92388 0 0.382682
    outer loop
      vertex -0.724444 -8.938 0.194114
      vertex -0.649519 8.938 0.375
      vertex -0.724444 8.938 0.194114
    endloop
  endfacet
  facet normal -0.92388 0 0.382682
    outer loop
      vertex -0.649519 8.938 0.375
      vertex -0.724444 -8.938 0.194114
      vertex -0.649519 -8.938 0.375
    endloop
  endfacet
  facet normal -0.991445 0 0.130528
    outer loop
      vertex -0.75 -8.938 0
      vertex -0.724444 8.938 0.194114
      vertex -0.75 8.938 0
    endloop
  endfacet
  facet normal -0.991445 0 0.130528
    outer loop
      vertex -0.724444 8.938 0.194114
      vertex -0.75 -8.938 0
      vertex -0.724444 -8.938 0.194114
    endloop
  endfacet
  facet normal -0.991445 0 -0.130528
    outer loop
      vertex -0.724444 -8.938 -0.194114
      vertex -0.75 8.938 0
      vertex -0.724444 8.938 -0.194114
    endloop
  endfacet
  facet normal -0.991445 -0 -0.130528
    outer loop
      vertex -0.75 8.938 0
      vertex -0.724444 -8.938 -0.194114
      vertex -0.75 -8.938 0
    endloop
  endfacet
  facet normal -0.92388 0 -0.382682
    outer loop
      vertex -0.649519 -8.938 -0.375
      vertex -0.724444 8.938 -0.194114
      vertex -0.649519 8.938 -0.375
    endloop
  endfacet
  facet normal -0.92388 -0 -0.382682
    outer loop
      vertex -0.724444 8.938 -0.194114
      vertex -0.649519 -8.938 -0.375
      vertex -0.724444 -8.938 -0.194114
    endloop
  endfacet
  facet normal -0.793353 0 -0.608762
    outer loop
      vertex -0.53033 -8.938 -0.53033
      vertex -0.649519 8.938 -0.375
      vertex -0.53033 8.938 -0.53033
    endloop
  endfacet
  facet normal -0.793353 -0 -0.608762
    outer loop
      vertex -0.649519 8.938 -0.375
      vertex -0.53033 -8.938 -0.53033
      vertex -0.649519 -8.938 -0.375
    endloop
  endfacet
  facet normal -0.608762 0 -0.793353
    outer loop
      vertex -0.53033 -8.938 -0.53033
      vertex -0.375 8.938 -0.649519
      vertex -0.375 -8.938 -0.649519
    endloop
  endfacet
  facet normal -0.608762 0 -0.793353
    outer loop
      vertex -0.375 8.938 -0.649519
      vertex -0.53033 -8.938 -0.53033
      vertex -0.53033 8.938 -0.53033
    endloop
  endfacet
  facet normal -0.382682 0 -0.92388
    outer loop
      vertex -0.375 -8.938 -0.649519
      vertex -0.194114 8.938 -0.724444
      vertex -0.194114 -8.938 -0.724444
    endloop
  endfacet
  facet normal -0.382682 0 -0.92388
    outer loop
      vertex -0.194114 8.938 -0.724444
      vertex -0.375 -8.938 -0.649519
      vertex -0.375 8.938 -0.649519
    endloop
  endfacet
  facet normal -0.130528 0 -0.991445
    outer loop
      vertex -0.194114 -8.938 -0.724444
      vertex 0 8.938 -0.75
      vertex 0 -8.938 -0.75
    endloop
  endfacet
  facet normal -0.130528 0 -0.991445
    outer loop
      vertex 0 8.938 -0.75
      vertex -0.194114 -8.938 -0.724444
      vertex -0.194114 8.938 -0.724444
    endloop
  endfacet
  facet normal 0.130528 0 -0.991445
    outer loop
      vertex 0 -8.938 -0.75
      vertex 0.194114 8.938 -0.724444
      vertex 0.194114 -8.938 -0.724444
    endloop
  endfacet
  facet normal 0.130528 0 -0.991445
    outer loop
      vertex 0.194114 8.938 -0.724444
      vertex 0 -8.938 -0.75
      vertex 0 8.938 -0.75
    endloop
  endfacet
  facet normal 0.382682 0 -0.92388
    outer loop
      vertex 0.194114 -8.938 -0.724444
      vertex 0.375 8.938 -0.649519
      vertex 0.375 -8.938 -0.649519
    endloop
  endfacet
  facet normal 0.382682 0 -0.92388
    outer loop
      vertex 0.375 8.938 -0.649519
      vertex 0.194114 -8.938 -0.724444
      vertex 0.194114 8.938 -0.724444
    endloop
  endfacet
  facet normal 0.608762 0 -0.793353
    outer loop
      vertex 0.375 -8.938 -0.649519
      vertex 0.53033 8.938 -0.53033
      vertex 0.53033 -8.938 -0.53033
    endloop
  endfacet
  facet normal 0.608762 0 -0.793353
    outer loop
      vertex 0.53033 8.938 -0.53033
      vertex 0.375 -8.938 -0.649519
      vertex 0.375 8.938 -0.649519
    endloop
  endfacet
  facet normal 0.793353 0 -0.608762
    outer loop
      vertex 0.649519 -8.938 -0.375
      vertex 0.53033 8.938 -0.53033
      vertex 0.649519 8.938 -0.375
    endloop
  endfacet
  facet normal 0.793353 0 -0.608762
    outer loop
      vertex 0.53033 8.938 -0.53033
      vertex 0.649519 -8.938 -0.375
      vertex 0.53033 -8.938 -0.53033
    endloop
  endfacet
  facet normal 0.92388 0 -0.382682
    outer loop
      vertex 0.724444 -8.938 -0.194114
      vertex 0.649519 8.938 -0.375
      vertex 0.724444 8.938 -0.194114
    endloop
  endfacet
  facet normal 0.92388 0 -0.382682
    outer loop
      vertex 0.649519 8.938 -0.375
      vertex 0.724444 -8.938 -0.194114
      vertex 0.649519 -8.938 -0.375
    endloop
  endfacet
  facet normal 0.991445 0 -0.130528
    outer loop
      vertex 0.75 -8.938 0
      vertex 0.724444 8.938 -0.194114
      vertex 0.75 8.938 0
    endloop
  endfacet
  facet normal 0.991445 0 -0.130528
    outer loop
      vertex 0.724444 8.938 -0.194114
      vertex 0.75 -8.938 0
      vertex 0.724444 -8.938 -0.194114
    endloop
  endfacet
  facet normal 0 1 0
    outer loop
      vertex 0.194114 8.938 0.724444
      vertex -0.194114 8.938 0.724444
      vertex 0 8.938 0.75
    endloop
  endfacet
  facet normal 0 1 0
    outer loop
      vertex 0.375 8.938 0.649519
      vertex -0.194114 8.938 0.724444
      vertex 0.194114 8.938 0.724444
    endloop
  endfacet
  facet normal 0 1 0
    outer loop
      vertex 0.375 8.938 0.649519
      vertex -0.375 8.938 0.649519
      vertex -0.194114 8.938 0.724444
    endloop
  endfacet
  facet normal 0 1 0
    outer loop
      vertex 0.53033 8.938 0.53033
      vertex -0.375 8.938 0.649519
      vertex 0.375 8.938 0.649519
    endloop
  endfacet
  facet normal 0 1 0
    outer loop
      vertex 0.53033 8.938 0.53033
      vertex -0.53033 8.938 0.53033
      vertex -0.375 8.938 0.649519
    endloop
  endfacet
  facet normal 0 1 0
    outer loop
      vertex 0.649519 8.938 0.375
      vertex -0.53033 8.938 0.53033
      vertex 0.53033 8.938 0.53033
    endloop
  endfacet
  facet normal 0 1 0
    outer loop
      vertex 0.649519 8.938 0.375
      vertex -0.649519 8.938 0.375
      vertex -0.53033 8.938 0.53033
    endloop
  endfacet
  facet normal 0 1 0
    outer loop
      vertex 0.724444 8.938 0.194114
      vertex -0.649519 8.938 0.375
      vertex 0.649519 8.938 0.375
    endloop
  endfacet
  facet normal 0 1 0
    outer loop
      vertex 0.724444 8.938 0.194114
      vertex -0.724444 8.938 0.194114
      vertex -0.649519 8.938 0.375
    endloop
  endfacet
  facet normal 0 1 0
    outer loop
      vertex 0.75 8.938 0
      vertex -0.724444 8.938 0.194114
      vertex 0.724444 8.938 0.194114
    endloop
  endfacet
  facet normal 0 1 0
    outer loop
      vertex 0.75 8.938 0
      vertex -0.75 8.938 0
      vertex -0.724444 8.938 0.194114
    endloop
  endfacet
  facet normal 0 1 -0
    outer loop
      vertex 0.724444 8.938 -0.194114
      vertex -0.75 8.938 0
      vertex 0.75 8.938 0
    endloop
  endfacet
  facet normal 0 1 0
    outer loop
      vertex 0.724444 8.938 -0.194114
      vertex -0.724444 8.938 -0.194114
      vertex -0.75 8.938 0
    endloop
  endfacet
  facet normal 0 1 -0
    outer loop
      vertex 0.649519 8.938 -0.375
      vertex -0.724444 8.938 -0.194114
      vertex 0.724444 8.938 -0.194114
    endloop
  endfacet
  facet normal 0 1 0
    outer loop
      vertex 0.649519 8.938 -0.375
      vertex -0.649519 8.938 -0.375
      vertex -0.724444 8.938 -0.194114
    endloop
  endfacet
  facet normal 0 1 -0
    outer loop
      vertex 0.53033 8.938 -0.53033
      vertex -0.649519 8.938 -0.375
      vertex 0.649519 8.938 -0.375
    endloop
  endfacet
  facet normal 0 1 0
    outer loop
      vertex 0.53033 8.938 -0.53033
      vertex -0.53033 8.938 -0.53033
      vertex -0.649519 8.938 -0.375
    endloop
  endfacet
  facet normal 0 1 -0
    outer loop
      vertex 0.375 8.938 -0.649519
      vertex -0.53033 8.938 -0.53033
      vertex 0.53033 8.938 -0.53033
    endloop
  endfacet
  facet normal 0 1 0
    outer loop
      vertex 0.375 8.938 -0.649519
      vertex -0.375 8.938 -0.649519
      vertex -0.53033 8.938 -0.53033
    endloop
  endfacet
  facet normal 0 1 -0
    outer loop
      vertex 0.194114 8.938 -0.724444
      vertex -0.375 8.938 -0.649519
      vertex 0.375 8.938 -0.649519
    endloop
  endfacet
  facet normal 0 1 0
    outer loop
      vertex 0.194114 8.938 -0.724444
      vertex -0.194114 8.938 -0.724444
      vertex -0.375 8.938 -0.649519
    endloop
  endfacet
  facet normal -0 1 0
    outer loop
      vertex -0.194114 8.938 -0.724444
      vertex 0.194114 8.938 -0.724444
      vertex 0 8.938 -0.75
    endloop
  endfacet
  facet normal 0 -1 0
    outer loop
      vertex -0.194114 -8.938 0.724444
      vertex 0.194114 -8.938 0.724444
      vertex 0 -8.938 0.75
    endloop
  endfacet
  facet normal 0 -1 0
    outer loop
      vertex -0.375 -8.938 0.649519
      vertex 0.194114 -8.938 0.724444
      vertex -0.194114 -8.938 0.724444
    endloop
  endfacet
  facet normal 0 -1 0
    outer loop
      vertex -0.375 -8.938 0.649519
      vertex 0.375 -8.938 0.649519
      vertex 0.194114 -8.938 0.724444
    endloop
  endfacet
  facet normal 0 -1 0
    outer loop
      vertex -0.53033 -8.938 0.53033
      vertex 0.375 -8.938 0.649519
      vertex -0.375 -8.938 0.649519
    endloop
  endfacet
  facet normal 0 -1 0
    outer loop
      vertex -0.53033 -8.938 0.53033
      vertex 0.53033 -8.938 0.53033
      vertex 0.375 -8.938 0.649519
    endloop
  endfacet
  facet normal 0 -1 0
    outer loop
      vertex -0.649519 -8.938 0.375
      vertex 0.53033 -8.938 0.53033
      vertex -0.53033 -8.938 0.53033
    endloop
  endfacet
  facet normal 0 -1 0
    outer loop
      vertex -0.649519 -8.938 0.375
      vertex 0.649519 -8.938 0.375
      vertex 0.53033 -8.938 0.53033
    endloop
  endfacet
  facet normal 0 -1 0
    outer loop
      vertex -0.724444 -8.938 0.194114
      vertex 0.649519 -8.938 0.375
      vertex -0.649519 -8.938 0.375
    endloop
  endfacet
  facet normal 0 -1 0
    outer loop
      vertex -0.724444 -8.938 0.194114
      vertex 0.724444 -8.938 0.194114
      vertex 0.649519 -8.938 0.375
    endloop
  endfacet
  facet normal 0 -1 0
    outer loop
      vertex -0.75 -8.938 0
      vertex 0.724444 -8.938 0.194114
      vertex -0.724444 -8.938 0.194114
    endloop
  endfacet
  facet normal 0 -1 0
    outer loop
      vertex -0.75 -8.938 0
      vertex 0.75 -8.938 0
      vertex 0.724444 -8.938 0.194114
    endloop
  endfacet
  facet normal 0 -1 0
    outer loop
      vertex -0.724444 -8.938 -0.194114
      vertex 0.75 -8.938 0
      vertex -0.75 -8.938 0
    endloop
  endfacet
  facet normal 0 -1 0
    outer loop
      vertex -0.724444 -8.938 -0.194114
      vertex 0.724444 -8.938 -0.194114
      vertex 0.75 -8.938 0
    endloop
  endfacet
  facet normal 0 -1 0
    outer loop
      vertex -0.649519 -8.938 -0.375
      vertex 0.724444 -8.938 -0.194114
      vertex -0.724444 -8.938 -0.194114
    endloop
  endfacet
  facet normal 0 -1 0
    outer loop
      vertex -0.649519 -8.938 -0.375
      vertex 0.649519 -8.938 -0.375
      vertex 0.724444 -8.938 -0.194114
    endloop
  endfacet
  facet normal 0 -1 0
    outer loop
      vertex -0.53033 -8.938 -0.53033
      vertex 0.649519 -8.938 -0.375
      vertex -0.649519 -8.938 -0.375
    endloop
  endfacet
  facet normal 0 -1 0
    outer loop
      vertex -0.53033 -8.938 -0.53033
      vertex 0.53033 -8.938 -0.53033
      vertex 0.649519 -8.938 -0.375
    endloop
  endfacet
  facet normal 0 -1 0
    outer loop
      vertex -0.375 -8.938 -0.649519
      vertex 0.53033 -8.938 -0.53033
      vertex -0.53033 -8.938 -0.53033
    endloop
  endfacet
  facet normal 0 -1 0
    outer loop
      vertex -0.375 -8.938 -0.649519
      vertex 0.375 -8.938 -0.649519
      vertex 0.53033 -8.938 -0.53033
    endloop
  endfacet
  facet normal 0 -1 0
    outer loop
      vertex -0.194114 -8.938 -0.724444
      vertex 0.375 -8.938 -0.649519
      vertex -0.375 -8.938 -0.649519
    endloop
  endfacet
  facet normal 0 -1 0
    outer loop
      vertex -0.194114 -8.938 -0.724444
      vertex 0.194114 -8.938 -0.724444
      vertex 0.375 -8.938 -0.649519
    endloop
  endfacet
  facet normal -0 -1 0
    outer loop
      vertex 0.194114 -8.938 -0.724444
      vertex -0.194114 -8.938 -0.724444
      vertex 0 -8.938 -0.75
    endloop
  endfacet
endsolid OpenSCAD_Model
