solid OpenSCAD_Model
  facet normal 1 -0 0
    outer loop
      vertex -9.25 -7.938 3.5
      vertex -9.25 -7.438 1.75
      vertex -9.25 -7.438 3.5
    endloop
  endfacet
  facet normal 1 0 0
    outer loop
      vertex -9.25 -7.438 1.75
      vertex -9.25 -7.938 3.5
      vertex -9.25 -7.938 1.75
    endloop
  endfacet
  facet normal -1 0 0
    outer loop
      vertex -8.75 -7.938 1.75
      vertex -8.75 -7.438 3.5
      vertex -8.75 -7.438 1.75
    endloop
  endfacet
  facet normal -1 -0 0
    outer loop
      vertex -8.75 -7.438 3.5
      vertex -8.75 -7.938 1.75
      vertex -8.75 -7.938 3.5
    endloop
  endfacet
  facet normal -0 0 1
    outer loop
      vertex -9.25 -7.438 1.75
      vertex -8.75 -7.938 1.75
      vertex -8.75 -7.438 1.75
    endloop
  endfacet
  facet normal 0 0 1
    outer loop
      vertex -8.75 -7.938 1.75
      vertex -9.25 -7.438 1.75
      vertex -9.25 -7.938 1.75
    endloop
  endfacet
  facet normal 1 -0 0
    outer loop
      vertex -5.25 -7.938 3.5
      vertex -5.25 -7.438 1.75
      vertex -5.25 -7.438 3.5
    endloop
  endfacet
  facet normal 1 0 0
    outer loop
      vertex -5.25 -7.438 1.75
      vertex -5.25 -7.938 3.5
      vertex -5.25 -7.938 1.75
    endloop
  endfacet
  facet normal -1 0 0
    outer loop
      vertex -4.75 -7.938 1.75
      vertex -4.75 -7.438 3.5
      vertex -4.75 -7.438 1.75
    endloop
  endfacet
  facet normal -1 -0 0
    outer loop
      vertex -4.75 -7.438 3.5
      vertex -4.75 -7.938 1.75
      vertex -4.75 -7.938 3.5
    endloop
  endfacet
  facet normal -0 0 1
    outer loop
      vertex -5.25 -7.438 1.75
      vertex -4.75 -7.938 1.75
      vertex -4.75 -7.438 1.75
    endloop
  endfacet
  facet normal 0 0 1
    outer loop
      vertex -4.75 -7.938 1.75
      vertex -5.25 -7.438 1.75
      vertex -5.25 -7.938 1.75
    endloop
  endfacet
  facet normal 1 -0 0
    outer loop
      vertex -1.75 -7.938 3.5
      vertex -1.75 -7.438 1.75
      vertex -1.75 -7.438 3.5
    endloop
  endfacet
  facet normal 1 0 0
    outer loop
      vertex -1.75 -7.438 1.75
      vertex -1.75 -7.938 3.5
      vertex -1.75 -7.938 1.75
    endloop
  endfacet
  facet normal -1 0 0
    outer loop
      vertex -1.25 -7.938 1.75
      vertex -1.25 -7.438 3.5
      vertex -1.25 -7.438 1.75
    endloop
  endfacet
  facet normal -1 -0 0
    outer loop
      vertex -1.25 -7.438 3.5
      vertex -1.25 -7.938 1.75
      vertex -1.25 -7.938 3.5
    endloop
  endfacet
  facet normal -0 0 1
    outer loop
      vertex -1.75 -7.438 1.75
      vertex -1.25 -7.938 1.75
      vertex -1.25 -7.438 1.75
    endloop
  endfacet
  facet normal 0 0 1
    outer loop
      vertex -1.25 -7.938 1.75
      vertex -1.75 -7.438 1.75
      vertex -1.75 -7.938 1.75
    endloop
  endfacet
  facet normal 1 -0 0
    outer loop
      vertex 1.25 -7.938 3.5
      vertex 1.25 -7.438 1.75
      vertex 1.25 -7.438 3.5
    endloop
  endfacet
  facet normal 1 0 0
    outer loop
      vertex 1.25 -7.438 1.75
      vertex 1.25 -7.938 3.5
      vertex 1.25 -7.938 1.75
    endloop
  endfacet
  facet normal -1 0 0
    outer loop
      vertex 1.75 -7.938 1.75
      vertex 1.75 -7.438 3.5
      vertex 1.75 -7.438 1.75
    endloop
  endfacet
  facet normal -1 -0 0
    outer loop
      vertex 1.75 -7.438 3.5
      vertex 1.75 -7.938 1.75
      vertex 1.75 -7.938 3.5
    endloop
  endfacet
  facet normal -0 0 1
    outer loop
      vertex 1.25 -7.438 1.75
      vertex 1.75 -7.938 1.75
      vertex 1.75 -7.438 1.75
    endloop
  endfacet
  facet normal 0 0 1
    outer loop
      vertex 1.75 -7.938 1.75
      vertex 1.25 -7.438 1.75
      vertex 1.25 -7.938 1.75
    endloop
  endfacet
  facet normal 1 -0 0
    outer loop
      vertex 4.75 -7.938 3.5
      vertex 4.75 -7.438 1.75
      vertex 4.75 -7.438 3.5
    endloop
  endfacet
  facet normal 1 0 0
    outer loop
      vertex 4.75 -7.438 1.75
      vertex 4.75 -7.938 3.5
      vertex 4.75 -7.938 1.75
    endloop
  endfacet
  facet normal -1 0 0
    outer loop
      vertex 5.25 -7.938 1.75
      vertex 5.25 -7.438 3.5
      vertex 5.25 -7.438 1.75
    endloop
  endfacet
  facet normal -1 -0 0
    outer loop
      vertex 5.25 -7.438 3.5
      vertex 5.25 -7.938 1.75
      vertex 5.25 -7.938 3.5
    endloop
  endfacet
  facet normal -0 0 1
    outer loop
      vertex 4.75 -7.438 1.75
      vertex 5.25 -7.938 1.75
      vertex 5.25 -7.438 1.75
    endloop
  endfacet
  facet normal 0 0 1
    outer loop
      vertex 5.25 -7.938 1.75
      vertex 4.75 -7.438 1.75
      vertex 4.75 -7.938 1.75
    endloop
  endfacet
  facet normal 1 -0 0
    outer loop
      vertex 8.75 -7.938 3.5
      vertex 8.75 -7.438 1.75
      vertex 8.75 -7.438 3.5
    endloop
  endfacet
  facet normal 1 0 0
    outer loop
      vertex 8.75 -7.438 1.75
      vertex 8.75 -7.938 3.5
      vertex 8.75 -7.938 1.75
    endloop
  endfacet
  facet normal -1 0 0
    outer loop
      vertex 9.25 -7.938 1.75
      vertex 9.25 -7.438 3.5
      vertex 9.25 -7.438 1.75
    endloop
  endfacet
  facet normal -1 -0 0
    outer loop
      vertex 9.25 -7.438 3.5
      vertex 9.25 -7.938 1.75
      vertex 9.25 -7.938 3.5
    endloop
  endfacet
  facet normal -0 0 1
    outer loop
      vertex 8.75 -7.438 1.75
      vertex 9.25 -7.938 1.75
      vertex 9.25 -7.438 1.75
    endloop
  endfacet
  facet normal 0 0 1
    outer loop
      vertex 9.25 -7.938 1.75
      vertex 8.75 -7.438 1.75
      vertex 8.75 -7.938 1.75
    endloop
  endfacet
  facet normal -1 0 0
    outer loop
      vertex -10.25 -7.938 0
      vertex -10.25 -7.438 3.5
      vertex -10.25 -7.438 0
    endloop
  endfacet
  facet normal -1 -0 0
    outer loop
      vertex -10.25 -7.438 3.5
      vertex -10.25 -7.938 0
      vertex -10.25 -7.938 3.5
    endloop
  endfacet
  facet normal -0 0 1
    outer loop
      vertex 9.25 -7.438 3.5
      vertex 10.25 -7.938 3.5
      vertex 10.25 -7.438 3.5
    endloop
  endfacet
  facet normal 0 0 1
    outer loop
      vertex 10.25 -7.938 3.5
      vertex 9.25 -7.438 3.5
      vertex 9.25 -7.938 3.5
    endloop
  endfacet
  facet normal -0 0 1
    outer loop
      vertex -10.25 -7.438 3.5
      vertex -9.25 -7.938 3.5
      vertex -9.25 -7.438 3.5
    endloop
  endfacet
  facet normal 0 0 1
    outer loop
      vertex -9.25 -7.938 3.5
      vertex -10.25 -7.438 3.5
      vertex -10.25 -7.938 3.5
    endloop
  endfacet
  facet normal -0 0 1
    outer loop
      vertex -8.75 -7.438 3.5
      vertex -5.25 -7.938 3.5
      vertex -5.25 -7.438 3.5
    endloop
  endfacet
  facet normal 0 0 1
    outer loop
      vertex -5.25 -7.938 3.5
      vertex -8.75 -7.438 3.5
      vertex -8.75 -7.938 3.5
    endloop
  endfacet
  facet normal -0 0 1
    outer loop
      vertex -4.75 -7.438 3.5
      vertex -1.75 -7.938 3.5
      vertex -1.75 -7.438 3.5
    endloop
  endfacet
  facet normal 0 0 1
    outer loop
      vertex -1.75 -7.938 3.5
      vertex -4.75 -7.438 3.5
      vertex -4.75 -7.938 3.5
    endloop
  endfacet
  facet normal -0 0 1
    outer loop
      vertex -1.25 -7.438 3.5
      vertex 1.25 -7.938 3.5
      vertex 1.25 -7.438 3.5
    endloop
  endfacet
  facet normal 0 0 1
    outer loop
      vertex 1.25 -7.938 3.5
      vertex -1.25 -7.438 3.5
      vertex -1.25 -7.938 3.5
    endloop
  endfacet
  facet normal -0 0 1
    outer loop
      vertex 1.75 -7.438 3.5
      vertex 4.75 -7.938 3.5
      vertex 4.75 -7.438 3.5
    endloop
  endfacet
  facet normal 0 0 1
    outer loop
      vertex 4.75 -7.938 3.5
      vertex 1.75 -7.438 3.5
      vertex 1.75 -7.938 3.5
    endloop
  endfacet
  facet normal -0 0 1
    outer loop
      vertex 5.25 -7.438 3.5
      vertex 8.75 -7.938 3.5
      vertex 8.75 -7.438 3.5
    endloop
  endfacet
  facet normal 0 0 1
    outer loop
      vertex 8.75 -7.938 3.5
      vertex 5.25 -7.438 3.5
      vertex 5.25 -7.938 3.5
    endloop
  endfacet
  facet normal 1 -0 0
    outer loop
      vertex 10.25 -7.938 3.5
      vertex 10.25 -7.438 0
      vertex 10.25 -7.438 3.5
    endloop
  endfacet
  facet normal 1 0 0
    outer loop
      vertex 10.25 -7.438 0
      vertex 10.25 -7.938 3.5
      vertex 10.25 -7.938 0
    endloop
  endfacet
  facet normal 0 0 -1
    outer loop
      vertex -10.25 -7.938 0
      vertex 10.25 -7.438 0
      vertex 10.25 -7.938 0
    endloop
  endfacet
  facet normal -0 0 -1
    outer loop
      vertex 10.25 -7.438 0
      vertex -10.25 -7.938 0
      vertex -10.25 -7.438 0
    endloop
  endfacet
  facet normal 0 -1 0
    outer loop
      vertex -10.25 -7.938 3.5
      vertex -9.25 -7.938 1.75
      vertex -9.25 -7.938 3.5
    endloop
  endfacet
  facet normal 0 -1 0
    outer loop
      vertex -10.25 -7.938 0
      vertex -8.75 -7.938 1.75
      vertex -9.25 -7.938 1.75
    endloop
  endfacet
  facet normal 0 -1 -0
    outer loop
      vertex -8.75 -7.938 1.75
      vertex -10.25 -7.938 0
      vertex -5.25 -7.938 1.75
    endloop
  endfacet
  facet normal 0 -1 -0
    outer loop
      vertex -5.25 -7.938 1.75
      vertex -10.25 -7.938 0
      vertex -4.75 -7.938 1.75
    endloop
  endfacet
  facet normal 0 -1 -0
    outer loop
      vertex -4.75 -7.938 1.75
      vertex -10.25 -7.938 0
      vertex -1.75 -7.938 1.75
    endloop
  endfacet
  facet normal 0 -1 -0
    outer loop
      vertex -1.75 -7.938 1.75
      vertex -10.25 -7.938 0
      vertex -1.25 -7.938 1.75
    endloop
  endfacet
  facet normal 0 -1 -0
    outer loop
      vertex -1.25 -7.938 1.75
      vertex -10.25 -7.938 0
      vertex 1.25 -7.938 1.75
    endloop
  endfacet
  facet normal 0 -1 0
    outer loop
      vertex 10.25 -7.938 0
      vertex 1.25 -7.938 1.75
      vertex -10.25 -7.938 0
    endloop
  endfacet
  facet normal 0 -1 0
    outer loop
      vertex 1.25 -7.938 1.75
      vertex 10.25 -7.938 0
      vertex 1.75 -7.938 1.75
    endloop
  endfacet
  facet normal 0 -1 0
    outer loop
      vertex 1.75 -7.938 1.75
      vertex 10.25 -7.938 0
      vertex 4.75 -7.938 1.75
    endloop
  endfacet
  facet normal 0 -1 0
    outer loop
      vertex 4.75 -7.938 1.75
      vertex 10.25 -7.938 0
      vertex 5.25 -7.938 1.75
    endloop
  endfacet
  facet normal 0 -1 0
    outer loop
      vertex 5.25 -7.938 1.75
      vertex 10.25 -7.938 0
      vertex 8.75 -7.938 1.75
    endloop
  endfacet
  facet normal 0 -1 0
    outer loop
      vertex -10.25 -7.938 0
      vertex -9.25 -7.938 1.75
      vertex -10.25 -7.938 3.5
    endloop
  endfacet
  facet normal 0 -1 0
    outer loop
      vertex -8.75 -7.938 1.75
      vertex -5.25 -7.938 3.5
      vertex -8.75 -7.938 3.5
    endloop
  endfacet
  facet normal 0 -1 -0
    outer loop
      vertex -5.25 -7.938 3.5
      vertex -8.75 -7.938 1.75
      vertex -5.25 -7.938 1.75
    endloop
  endfacet
  facet normal 0 -1 0
    outer loop
      vertex -4.75 -7.938 1.75
      vertex -1.75 -7.938 3.5
      vertex -4.75 -7.938 3.5
    endloop
  endfacet
  facet normal 0 -1 -0
    outer loop
      vertex -1.75 -7.938 3.5
      vertex -4.75 -7.938 1.75
      vertex -1.75 -7.938 1.75
    endloop
  endfacet
  facet normal 0 -1 0
    outer loop
      vertex -1.25 -7.938 1.75
      vertex 1.25 -7.938 3.5
      vertex -1.25 -7.938 3.5
    endloop
  endfacet
  facet normal 0 -1 -0
    outer loop
      vertex 1.25 -7.938 3.5
      vertex -1.25 -7.938 1.75
      vertex 1.25 -7.938 1.75
    endloop
  endfacet
  facet normal 0 -1 0
    outer loop
      vertex 1.75 -7.938 1.75
      vertex 4.75 -7.938 3.5
      vertex 1.75 -7.938 3.5
    endloop
  endfacet
  facet normal 0 -1 -0
    outer loop
      vertex 4.75 -7.938 3.5
      vertex 1.75 -7.938 1.75
      vertex 4.75 -7.938 1.75
    endloop
  endfacet
  facet normal 0 -1 0
    outer loop
      vertex 5.25 -7.938 1.75
      vertex 8.75 -7.938 3.5
      vertex 5.25 -7.938 3.5
    endloop
  endfacet
  facet normal 0 -1 -0
    outer loop
      vertex 8.75 -7.938 3.5
      vertex 5.25 -7.938 1.75
      vertex 8.75 -7.938 1.75
    endloop
  endfacet
  facet normal 0 -1 0
    outer loop
      vertex 9.25 -7.938 1.75
      vertex 10.25 -7.938 3.5
      vertex 9.25 -7.938 3.5
    endloop
  endfacet
  facet normal 0 -1 0
    outer loop
      vertex 9.25 -7.938 1.75
      vertex 10.25 -7.938 0
      vertex 10.25 -7.938 3.5
    endloop
  endfacet
  facet normal 0 -1 0
    outer loop
      vertex 8.75 -7.938 1.75
      vertex 10.25 -7.938 0
      vertex 9.25 -7.938 1.75
    endloop
  endfacet
  facet normal 0 1 0
    outer loop
      vertex 10.25 -7.438 3.5
      vertex 9.25 -7.438 1.75
      vertex 9.25 -7.438 3.5
    endloop
  endfacet
  facet normal 0 1 0
    outer loop
      vertex 10.25 -7.438 0
      vertex 8.75 -7.438 1.75
      vertex 9.25 -7.438 1.75
    endloop
  endfacet
  facet normal 0 1 0
    outer loop
      vertex 8.75 -7.438 1.75
      vertex 10.25 -7.438 0
      vertex 5.25 -7.438 1.75
    endloop
  endfacet
  facet normal 0 1 0
    outer loop
      vertex 5.25 -7.438 1.75
      vertex 10.25 -7.438 0
      vertex 4.75 -7.438 1.75
    endloop
  endfacet
  facet normal 0 1 0
    outer loop
      vertex 4.75 -7.438 1.75
      vertex 10.25 -7.438 0
      vertex 1.75 -7.438 1.75
    endloop
  endfacet
  facet normal 0 1 0
    outer loop
      vertex 1.75 -7.438 1.75
      vertex 10.25 -7.438 0
      vertex 1.25 -7.438 1.75
    endloop
  endfacet
  facet normal 0 1 0
    outer loop
      vertex 1.25 -7.438 1.75
      vertex 10.25 -7.438 0
      vertex -1.25 -7.438 1.75
    endloop
  endfacet
  facet normal 0 1 0
    outer loop
      vertex -10.25 -7.438 0
      vertex -1.25 -7.438 1.75
      vertex 10.25 -7.438 0
    endloop
  endfacet
  facet normal 0 1 0
    outer loop
      vertex -1.25 -7.438 1.75
      vertex -10.25 -7.438 0
      vertex -1.75 -7.438 1.75
    endloop
  endfacet
  facet normal 0 1 0
    outer loop
      vertex -1.75 -7.438 1.75
      vertex -10.25 -7.438 0
      vertex -4.75 -7.438 1.75
    endloop
  endfacet
  facet normal 0 1 0
    outer loop
      vertex -4.75 -7.438 1.75
      vertex -10.25 -7.438 0
      vertex -5.25 -7.438 1.75
    endloop
  endfacet
  facet normal 0 1 0
    outer loop
      vertex -5.25 -7.438 1.75
      vertex -10.25 -7.438 0
      vertex -8.75 -7.438 1.75
    endloop
  endfacet
  facet normal 0 1 -0
    outer loop
      vertex 10.25 -7.438 0
      vertex 9.25 -7.438 1.75
      vertex 10.25 -7.438 3.5
    endloop
  endfacet
  facet normal 0 1 -0
    outer loop
      vertex 8.75 -7.438 1.75
      vertex 5.25 -7.438 3.5
      vertex 8.75 -7.438 3.5
    endloop
  endfacet
  facet normal 0 1 0
    outer loop
      vertex 5.25 -7.438 3.5
      vertex 8.75 -7.438 1.75
      vertex 5.25 -7.438 1.75
    endloop
  endfacet
  facet normal 0 1 -0
    outer loop
      vertex 4.75 -7.438 1.75
      vertex 1.75 -7.438 3.5
      vertex 4.75 -7.438 3.5
    endloop
  endfacet
  facet normal 0 1 0
    outer loop
      vertex 1.75 -7.438 3.5
      vertex 4.75 -7.438 1.75
      vertex 1.75 -7.438 1.75
    endloop
  endfacet
  facet normal 0 1 -0
    outer loop
      vertex 1.25 -7.438 1.75
      vertex -1.25 -7.438 3.5
      vertex 1.25 -7.438 3.5
    endloop
  endfacet
  facet normal 0 1 0
    outer loop
      vertex -1.25 -7.438 3.5
      vertex 1.25 -7.438 1.75
      vertex -1.25 -7.438 1.75
    endloop
  endfacet
  facet normal 0 1 -0
    outer loop
      vertex -1.75 -7.438 1.75
      vertex -4.75 -7.438 3.5
      vertex -1.75 -7.438 3.5
    endloop
  endfacet
  facet normal 0 1 0
    outer loop
      vertex -4.75 -7.438 3.5
      vertex -1.75 -7.438 1.75
      vertex -4.75 -7.438 1.75
    endloop
  endfacet
  facet normal 0 1 -0
    outer loop
      vertex -5.25 -7.438 1.75
      vertex -8.75 -7.438 3.5
      vertex -5.25 -7.438 3.5
    endloop
  endfacet
  facet normal 0 1 0
    outer loop
      vertex -8.75 -7.438 3.5
      vertex -5.25 -7.438 1.75
      vertex -8.75 -7.438 1.75
    endloop
  endfacet
  facet normal 0 1 -0
    outer loop
      vertex -9.25 -7.438 1.75
      vertex -10.25 -7.438 3.5
      vertex -9.25 -7.438 3.5
    endloop
  endfacet
  facet normal 0 1 0
    outer loop
      vertex -9.25 -7.438 1.75
      vertex -10.25 -7.438 0
      vertex -10.25 -7.438 3.5
    endloop
  endfacet
  facet normal 0 1 0
    outer loop
      vertex -8.75 -7.438 1.75
      vertex -10.25 -7.438 0
      vertex -9.25 -7.438 1.75
    endloop
  endfacet
endsolid OpenSCAD_Model
