solid OpenSCAD_Model
  facet normal 1 -0 0
    outer loop
      vertex -9.25 -1.8125 3.52
      vertex -9.25 -1.3125 1.75
      vertex -9.25 -1.3125 3.52
    endloop
  endfacet
  facet normal 1 0 0
    outer loop
      vertex -9.25 -1.3125 1.75
      vertex -9.25 -1.8125 3.52
      vertex -9.25 -1.8125 1.75
    endloop
  endfacet
  facet normal 0 0 -1
    outer loop
      vertex -9.25 -1.8125 3.52
      vertex -8.75 -1.3125 3.52
      vertex -8.75 -1.8125 3.52
    endloop
  endfacet
  facet normal -0 0 -1
    outer loop
      vertex -8.75 -1.3125 3.52
      vertex -9.25 -1.8125 3.52
      vertex -9.25 -1.3125 3.52
    endloop
  endfacet
  facet normal -1 0 0
    outer loop
      vertex -8.75 -1.8125 1.75
      vertex -8.75 -1.3125 3.52
      vertex -8.75 -1.3125 1.75
    endloop
  endfacet
  facet normal -1 -0 0
    outer loop
      vertex -8.75 -1.3125 3.52
      vertex -8.75 -1.8125 1.75
      vertex -8.75 -1.8125 3.52
    endloop
  endfacet
  facet normal 0 0 -1
    outer loop
      vertex -10.25 -1.8125 1.75
      vertex -9.25 -1.3125 1.75
      vertex -9.25 -1.8125 1.75
    endloop
  endfacet
  facet normal -0 0 -1
    outer loop
      vertex -9.25 -1.3125 1.75
      vertex -10.25 -1.8125 1.75
      vertex -10.25 -1.3125 1.75
    endloop
  endfacet
  facet normal 0 0 -1
    outer loop
      vertex 9.25 -1.8125 1.75
      vertex 10.25 -1.3125 1.75
      vertex 10.25 -1.8125 1.75
    endloop
  endfacet
  facet normal -0 0 -1
    outer loop
      vertex 10.25 -1.3125 1.75
      vertex 9.25 -1.8125 1.75
      vertex 9.25 -1.3125 1.75
    endloop
  endfacet
  facet normal 0 0 -1
    outer loop
      vertex -8.75 -1.8125 1.75
      vertex -5.25 -1.3125 1.75
      vertex -5.25 -1.8125 1.75
    endloop
  endfacet
  facet normal -0 0 -1
    outer loop
      vertex -5.25 -1.3125 1.75
      vertex -8.75 -1.8125 1.75
      vertex -8.75 -1.3125 1.75
    endloop
  endfacet
  facet normal 0 0 -1
    outer loop
      vertex -4.75 -1.8125 1.75
      vertex -1.75 -1.3125 1.75
      vertex -1.75 -1.8125 1.75
    endloop
  endfacet
  facet normal -0 0 -1
    outer loop
      vertex -1.75 -1.3125 1.75
      vertex -4.75 -1.8125 1.75
      vertex -4.75 -1.3125 1.75
    endloop
  endfacet
  facet normal 0 0 -1
    outer loop
      vertex -1.25 -1.8125 1.75
      vertex 1.25 -1.3125 1.75
      vertex 1.25 -1.8125 1.75
    endloop
  endfacet
  facet normal -0 0 -1
    outer loop
      vertex 1.25 -1.3125 1.75
      vertex -1.25 -1.8125 1.75
      vertex -1.25 -1.3125 1.75
    endloop
  endfacet
  facet normal 0 0 -1
    outer loop
      vertex 1.75 -1.8125 1.75
      vertex 4.75 -1.3125 1.75
      vertex 4.75 -1.8125 1.75
    endloop
  endfacet
  facet normal -0 0 -1
    outer loop
      vertex 4.75 -1.3125 1.75
      vertex 1.75 -1.8125 1.75
      vertex 1.75 -1.3125 1.75
    endloop
  endfacet
  facet normal 0 0 -1
    outer loop
      vertex 5.25 -1.8125 1.75
      vertex 8.75 -1.3125 1.75
      vertex 8.75 -1.8125 1.75
    endloop
  endfacet
  facet normal -0 0 -1
    outer loop
      vertex 8.75 -1.3125 1.75
      vertex 5.25 -1.8125 1.75
      vertex 5.25 -1.3125 1.75
    endloop
  endfacet
  facet normal 1 -0 0
    outer loop
      vertex -5.25 -1.8125 3.52
      vertex -5.25 -1.3125 1.75
      vertex -5.25 -1.3125 3.52
    endloop
  endfacet
  facet normal 1 0 0
    outer loop
      vertex -5.25 -1.3125 1.75
      vertex -5.25 -1.8125 3.52
      vertex -5.25 -1.8125 1.75
    endloop
  endfacet
  facet normal 0 0 -1
    outer loop
      vertex -5.25 -1.8125 3.52
      vertex -4.75 -1.3125 3.52
      vertex -4.75 -1.8125 3.52
    endloop
  endfacet
  facet normal -0 0 -1
    outer loop
      vertex -4.75 -1.3125 3.52
      vertex -5.25 -1.8125 3.52
      vertex -5.25 -1.3125 3.52
    endloop
  endfacet
  facet normal -1 0 0
    outer loop
      vertex -4.75 -1.8125 1.75
      vertex -4.75 -1.3125 3.52
      vertex -4.75 -1.3125 1.75
    endloop
  endfacet
  facet normal -1 -0 0
    outer loop
      vertex -4.75 -1.3125 3.52
      vertex -4.75 -1.8125 1.75
      vertex -4.75 -1.8125 3.52
    endloop
  endfacet
  facet normal 1 -0 0
    outer loop
      vertex -1.75 -1.8125 3.52
      vertex -1.75 -1.3125 1.75
      vertex -1.75 -1.3125 3.52
    endloop
  endfacet
  facet normal 1 0 0
    outer loop
      vertex -1.75 -1.3125 1.75
      vertex -1.75 -1.8125 3.52
      vertex -1.75 -1.8125 1.75
    endloop
  endfacet
  facet normal 0 0 -1
    outer loop
      vertex -1.75 -1.8125 3.52
      vertex -1.25 -1.3125 3.52
      vertex -1.25 -1.8125 3.52
    endloop
  endfacet
  facet normal -0 0 -1
    outer loop
      vertex -1.25 -1.3125 3.52
      vertex -1.75 -1.8125 3.52
      vertex -1.75 -1.3125 3.52
    endloop
  endfacet
  facet normal -1 0 0
    outer loop
      vertex -1.25 -1.8125 1.75
      vertex -1.25 -1.3125 3.52
      vertex -1.25 -1.3125 1.75
    endloop
  endfacet
  facet normal -1 -0 0
    outer loop
      vertex -1.25 -1.3125 3.52
      vertex -1.25 -1.8125 1.75
      vertex -1.25 -1.8125 3.52
    endloop
  endfacet
  facet normal 1 -0 0
    outer loop
      vertex 1.25 -1.8125 3.52
      vertex 1.25 -1.3125 1.75
      vertex 1.25 -1.3125 3.52
    endloop
  endfacet
  facet normal 1 0 0
    outer loop
      vertex 1.25 -1.3125 1.75
      vertex 1.25 -1.8125 3.52
      vertex 1.25 -1.8125 1.75
    endloop
  endfacet
  facet normal 0 0 -1
    outer loop
      vertex 1.25 -1.8125 3.52
      vertex 1.75 -1.3125 3.52
      vertex 1.75 -1.8125 3.52
    endloop
  endfacet
  facet normal -0 0 -1
    outer loop
      vertex 1.75 -1.3125 3.52
      vertex 1.25 -1.8125 3.52
      vertex 1.25 -1.3125 3.52
    endloop
  endfacet
  facet normal -1 0 0
    outer loop
      vertex 1.75 -1.8125 1.75
      vertex 1.75 -1.3125 3.52
      vertex 1.75 -1.3125 1.75
    endloop
  endfacet
  facet normal -1 -0 0
    outer loop
      vertex 1.75 -1.3125 3.52
      vertex 1.75 -1.8125 1.75
      vertex 1.75 -1.8125 3.52
    endloop
  endfacet
  facet normal 1 -0 0
    outer loop
      vertex 4.75 -1.8125 3.52
      vertex 4.75 -1.3125 1.75
      vertex 4.75 -1.3125 3.52
    endloop
  endfacet
  facet normal 1 0 0
    outer loop
      vertex 4.75 -1.3125 1.75
      vertex 4.75 -1.8125 3.52
      vertex 4.75 -1.8125 1.75
    endloop
  endfacet
  facet normal 0 0 -1
    outer loop
      vertex 4.75 -1.8125 3.52
      vertex 5.25 -1.3125 3.52
      vertex 5.25 -1.8125 3.52
    endloop
  endfacet
  facet normal -0 0 -1
    outer loop
      vertex 5.25 -1.3125 3.52
      vertex 4.75 -1.8125 3.52
      vertex 4.75 -1.3125 3.52
    endloop
  endfacet
  facet normal -1 0 0
    outer loop
      vertex 5.25 -1.8125 1.75
      vertex 5.25 -1.3125 3.52
      vertex 5.25 -1.3125 1.75
    endloop
  endfacet
  facet normal -1 -0 0
    outer loop
      vertex 5.25 -1.3125 3.52
      vertex 5.25 -1.8125 1.75
      vertex 5.25 -1.8125 3.52
    endloop
  endfacet
  facet normal 1 -0 0
    outer loop
      vertex 8.75 -1.8125 3.52
      vertex 8.75 -1.3125 1.75
      vertex 8.75 -1.3125 3.52
    endloop
  endfacet
  facet normal 1 0 0
    outer loop
      vertex 8.75 -1.3125 1.75
      vertex 8.75 -1.8125 3.52
      vertex 8.75 -1.8125 1.75
    endloop
  endfacet
  facet normal 0 0 -1
    outer loop
      vertex 8.75 -1.8125 3.52
      vertex 9.25 -1.3125 3.52
      vertex 9.25 -1.8125 3.52
    endloop
  endfacet
  facet normal -0 0 -1
    outer loop
      vertex 9.25 -1.3125 3.52
      vertex 8.75 -1.8125 3.52
      vertex 8.75 -1.3125 3.52
    endloop
  endfacet
  facet normal -1 0 0
    outer loop
      vertex 9.25 -1.8125 1.75
      vertex 9.25 -1.3125 3.52
      vertex 9.25 -1.3125 1.75
    endloop
  endfacet
  facet normal -1 -0 0
    outer loop
      vertex 9.25 -1.3125 3.52
      vertex 9.25 -1.8125 1.75
      vertex 9.25 -1.8125 3.52
    endloop
  endfacet
  facet normal -1 0 0
    outer loop
      vertex -10.25 -1.8125 1.75
      vertex -10.25 -1.3125 5.25
      vertex -10.25 -1.3125 1.75
    endloop
  endfacet
  facet normal -1 -0 0
    outer loop
      vertex -10.25 -1.3125 5.25
      vertex -10.25 -1.8125 1.75
      vertex -10.25 -1.8125 5.25
    endloop
  endfacet
  facet normal -0 0 1
    outer loop
      vertex -10.25 -1.3125 5.25
      vertex 10.25 -1.8125 5.25
      vertex 10.25 -1.3125 5.25
    endloop
  endfacet
  facet normal 0 0 1
    outer loop
      vertex 10.25 -1.8125 5.25
      vertex -10.25 -1.3125 5.25
      vertex -10.25 -1.8125 5.25
    endloop
  endfacet
  facet normal 1 -0 0
    outer loop
      vertex 10.25 -1.8125 5.25
      vertex 10.25 -1.3125 1.75
      vertex 10.25 -1.3125 5.25
    endloop
  endfacet
  facet normal 1 0 0
    outer loop
      vertex 10.25 -1.3125 1.75
      vertex 10.25 -1.8125 5.25
      vertex 10.25 -1.8125 1.75
    endloop
  endfacet
  facet normal 0 1 -0
    outer loop
      vertex -5.25 -1.3125 1.75
      vertex -8.75 -1.3125 3.52
      vertex -5.25 -1.3125 3.52
    endloop
  endfacet
  facet normal 0 1 0
    outer loop
      vertex -8.75 -1.3125 3.52
      vertex -5.25 -1.3125 1.75
      vertex -8.75 -1.3125 1.75
    endloop
  endfacet
  facet normal 0 1 -0
    outer loop
      vertex -1.75 -1.3125 1.75
      vertex -4.75 -1.3125 3.52
      vertex -1.75 -1.3125 3.52
    endloop
  endfacet
  facet normal 0 1 0
    outer loop
      vertex -4.75 -1.3125 3.52
      vertex -1.75 -1.3125 1.75
      vertex -4.75 -1.3125 1.75
    endloop
  endfacet
  facet normal 0 1 -0
    outer loop
      vertex 1.25 -1.3125 1.75
      vertex -1.25 -1.3125 3.52
      vertex 1.25 -1.3125 3.52
    endloop
  endfacet
  facet normal 0 1 0
    outer loop
      vertex -1.25 -1.3125 3.52
      vertex 1.25 -1.3125 1.75
      vertex -1.25 -1.3125 1.75
    endloop
  endfacet
  facet normal 0 1 -0
    outer loop
      vertex 4.75 -1.3125 1.75
      vertex 1.75 -1.3125 3.52
      vertex 4.75 -1.3125 3.52
    endloop
  endfacet
  facet normal 0 1 0
    outer loop
      vertex 1.75 -1.3125 3.52
      vertex 4.75 -1.3125 1.75
      vertex 1.75 -1.3125 1.75
    endloop
  endfacet
  facet normal 0 1 -0
    outer loop
      vertex 8.75 -1.3125 1.75
      vertex 5.25 -1.3125 3.52
      vertex 8.75 -1.3125 3.52
    endloop
  endfacet
  facet normal 0 1 0
    outer loop
      vertex 5.25 -1.3125 3.52
      vertex 8.75 -1.3125 1.75
      vertex 5.25 -1.3125 1.75
    endloop
  endfacet
  facet normal 0 1 0
    outer loop
      vertex 8.75 -1.3125 3.52
      vertex 10.25 -1.3125 5.25
      vertex 9.25 -1.3125 3.52
    endloop
  endfacet
  facet normal 0 1 -0
    outer loop
      vertex 10.25 -1.3125 1.75
      vertex 9.25 -1.3125 3.52
      vertex 10.25 -1.3125 5.25
    endloop
  endfacet
  facet normal 0 1 0
    outer loop
      vertex 9.25 -1.3125 3.52
      vertex 10.25 -1.3125 1.75
      vertex 9.25 -1.3125 1.75
    endloop
  endfacet
  facet normal 0 1 0
    outer loop
      vertex 5.25 -1.3125 3.52
      vertex 10.25 -1.3125 5.25
      vertex 8.75 -1.3125 3.52
    endloop
  endfacet
  facet normal 0 1 0
    outer loop
      vertex 4.75 -1.3125 3.52
      vertex 10.25 -1.3125 5.25
      vertex 5.25 -1.3125 3.52
    endloop
  endfacet
  facet normal 0 1 0
    outer loop
      vertex 1.75 -1.3125 3.52
      vertex 10.25 -1.3125 5.25
      vertex 4.75 -1.3125 3.52
    endloop
  endfacet
  facet normal 0 1 0
    outer loop
      vertex 1.25 -1.3125 3.52
      vertex 10.25 -1.3125 5.25
      vertex 1.75 -1.3125 3.52
    endloop
  endfacet
  facet normal 0 1 0
    outer loop
      vertex 10.25 -1.3125 5.25
      vertex 1.25 -1.3125 3.52
      vertex -10.25 -1.3125 5.25
    endloop
  endfacet
  facet normal 0 1 -0
    outer loop
      vertex -1.25 -1.3125 3.52
      vertex -10.25 -1.3125 5.25
      vertex 1.25 -1.3125 3.52
    endloop
  endfacet
  facet normal 0 1 -0
    outer loop
      vertex -1.75 -1.3125 3.52
      vertex -10.25 -1.3125 5.25
      vertex -1.25 -1.3125 3.52
    endloop
  endfacet
  facet normal 0 1 -0
    outer loop
      vertex -4.75 -1.3125 3.52
      vertex -10.25 -1.3125 5.25
      vertex -1.75 -1.3125 3.52
    endloop
  endfacet
  facet normal 0 1 -0
    outer loop
      vertex -5.25 -1.3125 3.52
      vertex -10.25 -1.3125 5.25
      vertex -4.75 -1.3125 3.52
    endloop
  endfacet
  facet normal 0 1 -0
    outer loop
      vertex -8.75 -1.3125 3.52
      vertex -10.25 -1.3125 5.25
      vertex -5.25 -1.3125 3.52
    endloop
  endfacet
  facet normal 0 1 -0
    outer loop
      vertex -9.25 -1.3125 3.52
      vertex -10.25 -1.3125 5.25
      vertex -8.75 -1.3125 3.52
    endloop
  endfacet
  facet normal 0 1 0
    outer loop
      vertex -10.25 -1.3125 1.75
      vertex -9.25 -1.3125 3.52
      vertex -9.25 -1.3125 1.75
    endloop
  endfacet
  facet normal 0 1 0
    outer loop
      vertex -9.25 -1.3125 3.52
      vertex -10.25 -1.3125 1.75
      vertex -10.25 -1.3125 5.25
    endloop
  endfacet
  facet normal 0 -1 0
    outer loop
      vertex 5.25 -1.8125 1.75
      vertex 8.75 -1.8125 3.52
      vertex 5.25 -1.8125 3.52
    endloop
  endfacet
  facet normal 0 -1 -0
    outer loop
      vertex 8.75 -1.8125 3.52
      vertex 5.25 -1.8125 1.75
      vertex 8.75 -1.8125 1.75
    endloop
  endfacet
  facet normal 0 -1 0
    outer loop
      vertex 1.75 -1.8125 1.75
      vertex 4.75 -1.8125 3.52
      vertex 1.75 -1.8125 3.52
    endloop
  endfacet
  facet normal 0 -1 -0
    outer loop
      vertex 4.75 -1.8125 3.52
      vertex 1.75 -1.8125 1.75
      vertex 4.75 -1.8125 1.75
    endloop
  endfacet
  facet normal 0 -1 0
    outer loop
      vertex -1.25 -1.8125 1.75
      vertex 1.25 -1.8125 3.52
      vertex -1.25 -1.8125 3.52
    endloop
  endfacet
  facet normal 0 -1 -0
    outer loop
      vertex 1.25 -1.8125 3.52
      vertex -1.25 -1.8125 1.75
      vertex 1.25 -1.8125 1.75
    endloop
  endfacet
  facet normal 0 -1 0
    outer loop
      vertex -4.75 -1.8125 1.75
      vertex -1.75 -1.8125 3.52
      vertex -4.75 -1.8125 3.52
    endloop
  endfacet
  facet normal 0 -1 -0
    outer loop
      vertex -1.75 -1.8125 3.52
      vertex -4.75 -1.8125 1.75
      vertex -1.75 -1.8125 1.75
    endloop
  endfacet
  facet normal 0 -1 0
    outer loop
      vertex -8.75 -1.8125 1.75
      vertex -5.25 -1.8125 3.52
      vertex -8.75 -1.8125 3.52
    endloop
  endfacet
  facet normal 0 -1 -0
    outer loop
      vertex -5.25 -1.8125 3.52
      vertex -8.75 -1.8125 1.75
      vertex -5.25 -1.8125 1.75
    endloop
  endfacet
  facet normal 0 -1 0
    outer loop
      vertex -8.75 -1.8125 3.52
      vertex -10.25 -1.8125 5.25
      vertex -9.25 -1.8125 3.52
    endloop
  endfacet
  facet normal 0 -1 0
    outer loop
      vertex -10.25 -1.8125 1.75
      vertex -9.25 -1.8125 3.52
      vertex -10.25 -1.8125 5.25
    endloop
  endfacet
  facet normal 0 -1 -0
    outer loop
      vertex -9.25 -1.8125 3.52
      vertex -10.25 -1.8125 1.75
      vertex -9.25 -1.8125 1.75
    endloop
  endfacet
  facet normal 0 -1 0
    outer loop
      vertex -5.25 -1.8125 3.52
      vertex -10.25 -1.8125 5.25
      vertex -8.75 -1.8125 3.52
    endloop
  endfacet
  facet normal 0 -1 0
    outer loop
      vertex -4.75 -1.8125 3.52
      vertex -10.25 -1.8125 5.25
      vertex -5.25 -1.8125 3.52
    endloop
  endfacet
  facet normal 0 -1 0
    outer loop
      vertex -1.75 -1.8125 3.52
      vertex -10.25 -1.8125 5.25
      vertex -4.75 -1.8125 3.52
    endloop
  endfacet
  facet normal 0 -1 0
    outer loop
      vertex -1.25 -1.8125 3.52
      vertex -10.25 -1.8125 5.25
      vertex -1.75 -1.8125 3.52
    endloop
  endfacet
  facet normal 0 -1 0
    outer loop
      vertex -10.25 -1.8125 5.25
      vertex -1.25 -1.8125 3.52
      vertex 10.25 -1.8125 5.25
    endloop
  endfacet
  facet normal 0 -1 0
    outer loop
      vertex 1.25 -1.8125 3.52
      vertex 10.25 -1.8125 5.25
      vertex -1.25 -1.8125 3.52
    endloop
  endfacet
  facet normal 0 -1 0
    outer loop
      vertex 1.75 -1.8125 3.52
      vertex 10.25 -1.8125 5.25
      vertex 1.25 -1.8125 3.52
    endloop
  endfacet
  facet normal 0 -1 0
    outer loop
      vertex 4.75 -1.8125 3.52
      vertex 10.25 -1.8125 5.25
      vertex 1.75 -1.8125 3.52
    endloop
  endfacet
  facet normal 0 -1 0
    outer loop
      vertex 5.25 -1.8125 3.52
      vertex 10.25 -1.8125 5.25
      vertex 4.75 -1.8125 3.52
    endloop
  endfacet
  facet normal 0 -1 0
    outer loop
      vertex 8.75 -1.8125 3.52
      vertex 10.25 -1.8125 5.25
      vertex 5.25 -1.8125 3.52
    endloop
  endfacet
  facet normal 0 -1 0
    outer loop
      vertex 9.25 -1.8125 3.52
      vertex 10.25 -1.8125 5.25
      vertex 8.75 -1.8125 3.52
    endloop
  endfacet
  facet normal 0 -1 0
    outer loop
      vertex 10.25 -1.8125 1.75
      vertex 9.25 -1.8125 3.52
      vertex 9.25 -1.8125 1.75
    endloop
  endfacet
  facet normal 0 -1 0
    outer loop
      vertex 9.25 -1.8125 3.52
      vertex 10.25 -1.8125 1.75
      vertex 10.25 -1.8125 5.25
    endloop
  endfacet
endsolid OpenSCAD_Model
