solid OpenSCAD_Model
  facet normal -1 0 0
    outer loop
      vertex -8.6875 -8.3125 1.75
      vertex -8.6875 -7.6875 3.5
      vertex -8.6875 -7.6875 1.75
    endloop
  endfacet
  facet normal -1 -0 0
    outer loop
      vertex -8.6875 -7.6875 3.5
      vertex -8.6875 -8.3125 1.75
      vertex -8.6875 -8.3125 3.5
    endloop
  endfacet
  facet normal -0 0 1
    outer loop
      vertex -9.3125 -7.6875 1.75
      vertex -8.6875 -8.3125 1.75
      vertex -8.6875 -7.6875 1.75
    endloop
  endfacet
  facet normal 0 0 1
    outer loop
      vertex -8.6875 -8.3125 1.75
      vertex -9.3125 -7.6875 1.75
      vertex -9.3125 -8.3125 1.75
    endloop
  endfacet
  facet normal 1 -0 0
    outer loop
      vertex -9.3125 -8.3125 3.5
      vertex -9.3125 -7.6875 1.75
      vertex -9.3125 -7.6875 3.5
    endloop
  endfacet
  facet normal 1 0 0
    outer loop
      vertex -9.3125 -7.6875 1.75
      vertex -9.3125 -8.3125 3.5
      vertex -9.3125 -8.3125 1.75
    endloop
  endfacet
  facet normal -1 0 0
    outer loop
      vertex -4.6875 -8.3125 1.75
      vertex -4.6875 -7.6875 3.5
      vertex -4.6875 -7.6875 1.75
    endloop
  endfacet
  facet normal -1 -0 0
    outer loop
      vertex -4.6875 -7.6875 3.5
      vertex -4.6875 -8.3125 1.75
      vertex -4.6875 -8.3125 3.5
    endloop
  endfacet
  facet normal -0 0 1
    outer loop
      vertex -5.3125 -7.6875 1.75
      vertex -4.6875 -8.3125 1.75
      vertex -4.6875 -7.6875 1.75
    endloop
  endfacet
  facet normal 0 0 1
    outer loop
      vertex -4.6875 -8.3125 1.75
      vertex -5.3125 -7.6875 1.75
      vertex -5.3125 -8.3125 1.75
    endloop
  endfacet
  facet normal 1 -0 0
    outer loop
      vertex -5.3125 -8.3125 3.5
      vertex -5.3125 -7.6875 1.75
      vertex -5.3125 -7.6875 3.5
    endloop
  endfacet
  facet normal 1 0 0
    outer loop
      vertex -5.3125 -7.6875 1.75
      vertex -5.3125 -8.3125 3.5
      vertex -5.3125 -8.3125 1.75
    endloop
  endfacet
  facet normal -1 0 0
    outer loop
      vertex -1.25 -8.3125 1.75
      vertex -1.25 -7.6875 3.5
      vertex -1.25 -7.6875 1.75
    endloop
  endfacet
  facet normal -1 -0 0
    outer loop
      vertex -1.25 -7.6875 3.5
      vertex -1.25 -8.3125 1.75
      vertex -1.25 -8.3125 3.5
    endloop
  endfacet
  facet normal -0 0 1
    outer loop
      vertex -1.875 -7.6875 1.75
      vertex -1.25 -8.3125 1.75
      vertex -1.25 -7.6875 1.75
    endloop
  endfacet
  facet normal 0 0 1
    outer loop
      vertex -1.25 -8.3125 1.75
      vertex -1.875 -7.6875 1.75
      vertex -1.875 -8.3125 1.75
    endloop
  endfacet
  facet normal 1 -0 0
    outer loop
      vertex -1.875 -8.3125 3.5
      vertex -1.875 -7.6875 1.75
      vertex -1.875 -7.6875 3.5
    endloop
  endfacet
  facet normal 1 0 0
    outer loop
      vertex -1.875 -7.6875 1.75
      vertex -1.875 -8.3125 3.5
      vertex -1.875 -8.3125 1.75
    endloop
  endfacet
  facet normal -1 0 0
    outer loop
      vertex 1.875 -8.3125 1.75
      vertex 1.875 -7.6875 3.5
      vertex 1.875 -7.6875 1.75
    endloop
  endfacet
  facet normal -1 -0 0
    outer loop
      vertex 1.875 -7.6875 3.5
      vertex 1.875 -8.3125 1.75
      vertex 1.875 -8.3125 3.5
    endloop
  endfacet
  facet normal -0 0 1
    outer loop
      vertex 1.25 -7.6875 1.75
      vertex 1.875 -8.3125 1.75
      vertex 1.875 -7.6875 1.75
    endloop
  endfacet
  facet normal 0 0 1
    outer loop
      vertex 1.875 -8.3125 1.75
      vertex 1.25 -7.6875 1.75
      vertex 1.25 -8.3125 1.75
    endloop
  endfacet
  facet normal 1 -0 0
    outer loop
      vertex 1.25 -8.3125 3.5
      vertex 1.25 -7.6875 1.75
      vertex 1.25 -7.6875 3.5
    endloop
  endfacet
  facet normal 1 0 0
    outer loop
      vertex 1.25 -7.6875 1.75
      vertex 1.25 -8.3125 3.5
      vertex 1.25 -8.3125 1.75
    endloop
  endfacet
  facet normal -1 0 0
    outer loop
      vertex 5.3125 -8.3125 1.75
      vertex 5.3125 -7.6875 3.5
      vertex 5.3125 -7.6875 1.75
    endloop
  endfacet
  facet normal -1 -0 0
    outer loop
      vertex 5.3125 -7.6875 3.5
      vertex 5.3125 -8.3125 1.75
      vertex 5.3125 -8.3125 3.5
    endloop
  endfacet
  facet normal -0 0 1
    outer loop
      vertex 4.6875 -7.6875 1.75
      vertex 5.3125 -8.3125 1.75
      vertex 5.3125 -7.6875 1.75
    endloop
  endfacet
  facet normal 0 0 1
    outer loop
      vertex 5.3125 -8.3125 1.75
      vertex 4.6875 -7.6875 1.75
      vertex 4.6875 -8.3125 1.75
    endloop
  endfacet
  facet normal 1 -0 0
    outer loop
      vertex 4.6875 -8.3125 3.5
      vertex 4.6875 -7.6875 1.75
      vertex 4.6875 -7.6875 3.5
    endloop
  endfacet
  facet normal 1 0 0
    outer loop
      vertex 4.6875 -7.6875 1.75
      vertex 4.6875 -8.3125 3.5
      vertex 4.6875 -8.3125 1.75
    endloop
  endfacet
  facet normal -1 0 0
    outer loop
      vertex 9.3125 -8.3125 1.75
      vertex 9.3125 -7.6875 3.5
      vertex 9.3125 -7.6875 1.75
    endloop
  endfacet
  facet normal -1 -0 0
    outer loop
      vertex 9.3125 -7.6875 3.5
      vertex 9.3125 -8.3125 1.75
      vertex 9.3125 -8.3125 3.5
    endloop
  endfacet
  facet normal -0 0 1
    outer loop
      vertex 8.6875 -7.6875 1.75
      vertex 9.3125 -8.3125 1.75
      vertex 9.3125 -7.6875 1.75
    endloop
  endfacet
  facet normal 0 0 1
    outer loop
      vertex 9.3125 -8.3125 1.75
      vertex 8.6875 -7.6875 1.75
      vertex 8.6875 -8.3125 1.75
    endloop
  endfacet
  facet normal 1 -0 0
    outer loop
      vertex 8.6875 -8.3125 3.5
      vertex 8.6875 -7.6875 1.75
      vertex 8.6875 -7.6875 3.5
    endloop
  endfacet
  facet normal 1 0 0
    outer loop
      vertex 8.6875 -7.6875 1.75
      vertex 8.6875 -8.3125 3.5
      vertex 8.6875 -8.3125 1.75
    endloop
  endfacet
  facet normal 1 -0 0
    outer loop
      vertex 12 -8.3125 3.5
      vertex 12 -7.6875 0
      vertex 12 -7.6875 3.5
    endloop
  endfacet
  facet normal 1 0 0
    outer loop
      vertex 12 -7.6875 0
      vertex 12 -8.3125 3.5
      vertex 12 -8.3125 0
    endloop
  endfacet
  facet normal -0 0 1
    outer loop
      vertex -12 -7.6875 3.5
      vertex -9.3125 -8.3125 3.5
      vertex -9.3125 -7.6875 3.5
    endloop
  endfacet
  facet normal 0 0 1
    outer loop
      vertex -9.3125 -8.3125 3.5
      vertex -12 -7.6875 3.5
      vertex -12 -8.3125 3.5
    endloop
  endfacet
  facet normal -0 0 1
    outer loop
      vertex 9.3125 -7.6875 3.5
      vertex 12 -8.3125 3.5
      vertex 12 -7.6875 3.5
    endloop
  endfacet
  facet normal 0 0 1
    outer loop
      vertex 12 -8.3125 3.5
      vertex 9.3125 -7.6875 3.5
      vertex 9.3125 -8.3125 3.5
    endloop
  endfacet
  facet normal -0 0 1
    outer loop
      vertex -8.6875 -7.6875 3.5
      vertex -5.3125 -8.3125 3.5
      vertex -5.3125 -7.6875 3.5
    endloop
  endfacet
  facet normal 0 0 1
    outer loop
      vertex -5.3125 -8.3125 3.5
      vertex -8.6875 -7.6875 3.5
      vertex -8.6875 -8.3125 3.5
    endloop
  endfacet
  facet normal -0 0 1
    outer loop
      vertex -4.6875 -7.6875 3.5
      vertex -1.875 -8.3125 3.5
      vertex -1.875 -7.6875 3.5
    endloop
  endfacet
  facet normal 0 0 1
    outer loop
      vertex -1.875 -8.3125 3.5
      vertex -4.6875 -7.6875 3.5
      vertex -4.6875 -8.3125 3.5
    endloop
  endfacet
  facet normal -0 0 1
    outer loop
      vertex -1.25 -7.6875 3.5
      vertex 1.25 -8.3125 3.5
      vertex 1.25 -7.6875 3.5
    endloop
  endfacet
  facet normal 0 0 1
    outer loop
      vertex 1.25 -8.3125 3.5
      vertex -1.25 -7.6875 3.5
      vertex -1.25 -8.3125 3.5
    endloop
  endfacet
  facet normal -0 0 1
    outer loop
      vertex 1.875 -7.6875 3.5
      vertex 4.6875 -8.3125 3.5
      vertex 4.6875 -7.6875 3.5
    endloop
  endfacet
  facet normal 0 0 1
    outer loop
      vertex 4.6875 -8.3125 3.5
      vertex 1.875 -7.6875 3.5
      vertex 1.875 -8.3125 3.5
    endloop
  endfacet
  facet normal -0 0 1
    outer loop
      vertex 5.3125 -7.6875 3.5
      vertex 8.6875 -8.3125 3.5
      vertex 8.6875 -7.6875 3.5
    endloop
  endfacet
  facet normal 0 0 1
    outer loop
      vertex 8.6875 -8.3125 3.5
      vertex 5.3125 -7.6875 3.5
      vertex 5.3125 -8.3125 3.5
    endloop
  endfacet
  facet normal 0 0 -1
    outer loop
      vertex -12 -8.3125 0
      vertex 12 -7.6875 0
      vertex 12 -8.3125 0
    endloop
  endfacet
  facet normal -0 0 -1
    outer loop
      vertex 12 -7.6875 0
      vertex -12 -8.3125 0
      vertex -12 -7.6875 0
    endloop
  endfacet
  facet normal -1 0 0
    outer loop
      vertex -12 -8.3125 0
      vertex -12 -7.6875 3.5
      vertex -12 -7.6875 0
    endloop
  endfacet
  facet normal -1 -0 0
    outer loop
      vertex -12 -7.6875 3.5
      vertex -12 -8.3125 0
      vertex -12 -8.3125 3.5
    endloop
  endfacet
  facet normal 0 1 0
    outer loop
      vertex 12 -7.6875 3.5
      vertex 9.3125 -7.6875 1.75
      vertex 9.3125 -7.6875 3.5
    endloop
  endfacet
  facet normal 0 1 0
    outer loop
      vertex 12 -7.6875 0
      vertex 8.6875 -7.6875 1.75
      vertex 9.3125 -7.6875 1.75
    endloop
  endfacet
  facet normal 0 1 0
    outer loop
      vertex 8.6875 -7.6875 1.75
      vertex 12 -7.6875 0
      vertex 5.3125 -7.6875 1.75
    endloop
  endfacet
  facet normal 0 1 0
    outer loop
      vertex 5.3125 -7.6875 1.75
      vertex 12 -7.6875 0
      vertex 4.6875 -7.6875 1.75
    endloop
  endfacet
  facet normal 0 1 0
    outer loop
      vertex 4.6875 -7.6875 1.75
      vertex 12 -7.6875 0
      vertex 1.875 -7.6875 1.75
    endloop
  endfacet
  facet normal 0 1 0
    outer loop
      vertex 1.875 -7.6875 1.75
      vertex 12 -7.6875 0
      vertex 1.25 -7.6875 1.75
    endloop
  endfacet
  facet normal 0 1 0
    outer loop
      vertex 1.25 -7.6875 1.75
      vertex 12 -7.6875 0
      vertex -1.25 -7.6875 1.75
    endloop
  endfacet
  facet normal 0 1 0
    outer loop
      vertex -12 -7.6875 0
      vertex -1.25 -7.6875 1.75
      vertex 12 -7.6875 0
    endloop
  endfacet
  facet normal 0 1 0
    outer loop
      vertex -1.25 -7.6875 1.75
      vertex -12 -7.6875 0
      vertex -1.875 -7.6875 1.75
    endloop
  endfacet
  facet normal 0 1 0
    outer loop
      vertex -1.875 -7.6875 1.75
      vertex -12 -7.6875 0
      vertex -4.6875 -7.6875 1.75
    endloop
  endfacet
  facet normal 0 1 0
    outer loop
      vertex -4.6875 -7.6875 1.75
      vertex -12 -7.6875 0
      vertex -5.3125 -7.6875 1.75
    endloop
  endfacet
  facet normal 0 1 0
    outer loop
      vertex -5.3125 -7.6875 1.75
      vertex -12 -7.6875 0
      vertex -8.6875 -7.6875 1.75
    endloop
  endfacet
  facet normal 0 1 -0
    outer loop
      vertex 12 -7.6875 0
      vertex 9.3125 -7.6875 1.75
      vertex 12 -7.6875 3.5
    endloop
  endfacet
  facet normal 0 1 -0
    outer loop
      vertex 8.6875 -7.6875 1.75
      vertex 5.3125 -7.6875 3.5
      vertex 8.6875 -7.6875 3.5
    endloop
  endfacet
  facet normal 0 1 0
    outer loop
      vertex 5.3125 -7.6875 3.5
      vertex 8.6875 -7.6875 1.75
      vertex 5.3125 -7.6875 1.75
    endloop
  endfacet
  facet normal 0 1 -0
    outer loop
      vertex 4.6875 -7.6875 1.75
      vertex 1.875 -7.6875 3.5
      vertex 4.6875 -7.6875 3.5
    endloop
  endfacet
  facet normal 0 1 0
    outer loop
      vertex 1.875 -7.6875 3.5
      vertex 4.6875 -7.6875 1.75
      vertex 1.875 -7.6875 1.75
    endloop
  endfacet
  facet normal 0 1 -0
    outer loop
      vertex 1.25 -7.6875 1.75
      vertex -1.25 -7.6875 3.5
      vertex 1.25 -7.6875 3.5
    endloop
  endfacet
  facet normal 0 1 0
    outer loop
      vertex -1.25 -7.6875 3.5
      vertex 1.25 -7.6875 1.75
      vertex -1.25 -7.6875 1.75
    endloop
  endfacet
  facet normal 0 1 -0
    outer loop
      vertex -1.875 -7.6875 1.75
      vertex -4.6875 -7.6875 3.5
      vertex -1.875 -7.6875 3.5
    endloop
  endfacet
  facet normal 0 1 0
    outer loop
      vertex -4.6875 -7.6875 3.5
      vertex -1.875 -7.6875 1.75
      vertex -4.6875 -7.6875 1.75
    endloop
  endfacet
  facet normal 0 1 -0
    outer loop
      vertex -5.3125 -7.6875 1.75
      vertex -8.6875 -7.6875 3.5
      vertex -5.3125 -7.6875 3.5
    endloop
  endfacet
  facet normal 0 1 0
    outer loop
      vertex -8.6875 -7.6875 3.5
      vertex -5.3125 -7.6875 1.75
      vertex -8.6875 -7.6875 1.75
    endloop
  endfacet
  facet normal 0 1 -0
    outer loop
      vertex -9.3125 -7.6875 1.75
      vertex -12 -7.6875 3.5
      vertex -9.3125 -7.6875 3.5
    endloop
  endfacet
  facet normal 0 1 0
    outer loop
      vertex -9.3125 -7.6875 1.75
      vertex -12 -7.6875 0
      vertex -12 -7.6875 3.5
    endloop
  endfacet
  facet normal 0 1 0
    outer loop
      vertex -8.6875 -7.6875 1.75
      vertex -12 -7.6875 0
      vertex -9.3125 -7.6875 1.75
    endloop
  endfacet
  facet normal 0 -1 0
    outer loop
      vertex -12 -8.3125 3.5
      vertex -9.3125 -8.3125 1.75
      vertex -9.3125 -8.3125 3.5
    endloop
  endfacet
  facet normal 0 -1 0
    outer loop
      vertex -12 -8.3125 0
      vertex -8.6875 -8.3125 1.75
      vertex -9.3125 -8.3125 1.75
    endloop
  endfacet
  facet normal 0 -1 -0
    outer loop
      vertex -8.6875 -8.3125 1.75
      vertex -12 -8.3125 0
      vertex -5.3125 -8.3125 1.75
    endloop
  endfacet
  facet normal 0 -1 -0
    outer loop
      vertex -5.3125 -8.3125 1.75
      vertex -12 -8.3125 0
      vertex -4.6875 -8.3125 1.75
    endloop
  endfacet
  facet normal 0 -1 -0
    outer loop
      vertex -4.6875 -8.3125 1.75
      vertex -12 -8.3125 0
      vertex -1.875 -8.3125 1.75
    endloop
  endfacet
  facet normal 0 -1 -0
    outer loop
      vertex -1.875 -8.3125 1.75
      vertex -12 -8.3125 0
      vertex -1.25 -8.3125 1.75
    endloop
  endfacet
  facet normal 0 -1 -0
    outer loop
      vertex -1.25 -8.3125 1.75
      vertex -12 -8.3125 0
      vertex 1.25 -8.3125 1.75
    endloop
  endfacet
  facet normal 0 -1 0
    outer loop
      vertex 12 -8.3125 0
      vertex 1.25 -8.3125 1.75
      vertex -12 -8.3125 0
    endloop
  endfacet
  facet normal 0 -1 0
    outer loop
      vertex 1.25 -8.3125 1.75
      vertex 12 -8.3125 0
      vertex 1.875 -8.3125 1.75
    endloop
  endfacet
  facet normal 0 -1 0
    outer loop
      vertex 1.875 -8.3125 1.75
      vertex 12 -8.3125 0
      vertex 4.6875 -8.3125 1.75
    endloop
  endfacet
  facet normal 0 -1 0
    outer loop
      vertex 4.6875 -8.3125 1.75
      vertex 12 -8.3125 0
      vertex 5.3125 -8.3125 1.75
    endloop
  endfacet
  facet normal 0 -1 0
    outer loop
      vertex 5.3125 -8.3125 1.75
      vertex 12 -8.3125 0
      vertex 8.6875 -8.3125 1.75
    endloop
  endfacet
  facet normal 0 -1 0
    outer loop
      vertex -12 -8.3125 0
      vertex -9.3125 -8.3125 1.75
      vertex -12 -8.3125 3.5
    endloop
  endfacet
  facet normal 0 -1 0
    outer loop
      vertex -8.6875 -8.3125 1.75
      vertex -5.3125 -8.3125 3.5
      vertex -8.6875 -8.3125 3.5
    endloop
  endfacet
  facet normal 0 -1 -0
    outer loop
      vertex -5.3125 -8.3125 3.5
      vertex -8.6875 -8.3125 1.75
      vertex -5.3125 -8.3125 1.75
    endloop
  endfacet
  facet normal 0 -1 0
    outer loop
      vertex -4.6875 -8.3125 1.75
      vertex -1.875 -8.3125 3.5
      vertex -4.6875 -8.3125 3.5
    endloop
  endfacet
  facet normal 0 -1 -0
    outer loop
      vertex -1.875 -8.3125 3.5
      vertex -4.6875 -8.3125 1.75
      vertex -1.875 -8.3125 1.75
    endloop
  endfacet
  facet normal 0 -1 0
    outer loop
      vertex -1.25 -8.3125 1.75
      vertex 1.25 -8.3125 3.5
      vertex -1.25 -8.3125 3.5
    endloop
  endfacet
  facet normal 0 -1 -0
    outer loop
      vertex 1.25 -8.3125 3.5
      vertex -1.25 -8.3125 1.75
      vertex 1.25 -8.3125 1.75
    endloop
  endfacet
  facet normal 0 -1 0
    outer loop
      vertex 1.875 -8.3125 1.75
      vertex 4.6875 -8.3125 3.5
      vertex 1.875 -8.3125 3.5
    endloop
  endfacet
  facet normal 0 -1 -0
    outer loop
      vertex 4.6875 -8.3125 3.5
      vertex 1.875 -8.3125 1.75
      vertex 4.6875 -8.3125 1.75
    endloop
  endfacet
  facet normal 0 -1 0
    outer loop
      vertex 5.3125 -8.3125 1.75
      vertex 8.6875 -8.3125 3.5
      vertex 5.3125 -8.3125 3.5
    endloop
  endfacet
  facet normal 0 -1 -0
    outer loop
      vertex 8.6875 -8.3125 3.5
      vertex 5.3125 -8.3125 1.75
      vertex 8.6875 -8.3125 1.75
    endloop
  endfacet
  facet normal 0 -1 0
    outer loop
      vertex 9.3125 -8.3125 1.75
      vertex 12 -8.3125 3.5
      vertex 9.3125 -8.3125 3.5
    endloop
  endfacet
  facet normal 0 -1 0
    outer loop
      vertex 9.3125 -8.3125 1.75
      vertex 12 -8.3125 0
      vertex 12 -8.3125 3.5
    endloop
  endfacet
  facet normal 0 -1 0
    outer loop
      vertex 8.6875 -8.3125 1.75
      vertex 12 -8.3125 0
      vertex 9.3125 -8.3125 1.75
    endloop
  endfacet
  facet normal -1 0 0
    outer loop
      vertex -8.6875 7.6875 1.75
      vertex -8.6875 8.3125 3.5
      vertex -8.6875 8.3125 1.75
    endloop
  endfacet
  facet normal -1 -0 0
    outer loop
      vertex -8.6875 8.3125 3.5
      vertex -8.6875 7.6875 1.75
      vertex -8.6875 7.6875 3.5
    endloop
  endfacet
  facet normal -0 0 1
    outer loop
      vertex -9.3125 8.3125 1.75
      vertex -8.6875 7.6875 1.75
      vertex -8.6875 8.3125 1.75
    endloop
  endfacet
  facet normal 0 0 1
    outer loop
      vertex -8.6875 7.6875 1.75
      vertex -9.3125 8.3125 1.75
      vertex -9.3125 7.6875 1.75
    endloop
  endfacet
  facet normal 1 -0 0
    outer loop
      vertex -9.3125 7.6875 3.5
      vertex -9.3125 8.3125 1.75
      vertex -9.3125 8.3125 3.5
    endloop
  endfacet
  facet normal 1 0 0
    outer loop
      vertex -9.3125 8.3125 1.75
      vertex -9.3125 7.6875 3.5
      vertex -9.3125 7.6875 1.75
    endloop
  endfacet
  facet normal -1 0 0
    outer loop
      vertex -4.6875 7.6875 1.75
      vertex -4.6875 8.3125 3.5
      vertex -4.6875 8.3125 1.75
    endloop
  endfacet
  facet normal -1 -0 0
    outer loop
      vertex -4.6875 8.3125 3.5
      vertex -4.6875 7.6875 1.75
      vertex -4.6875 7.6875 3.5
    endloop
  endfacet
  facet normal -0 0 1
    outer loop
      vertex -5.3125 8.3125 1.75
      vertex -4.6875 7.6875 1.75
      vertex -4.6875 8.3125 1.75
    endloop
  endfacet
  facet normal 0 0 1
    outer loop
      vertex -4.6875 7.6875 1.75
      vertex -5.3125 8.3125 1.75
      vertex -5.3125 7.6875 1.75
    endloop
  endfacet
  facet normal 1 -0 0
    outer loop
      vertex -5.3125 7.6875 3.5
      vertex -5.3125 8.3125 1.75
      vertex -5.3125 8.3125 3.5
    endloop
  endfacet
  facet normal 1 0 0
    outer loop
      vertex -5.3125 8.3125 1.75
      vertex -5.3125 7.6875 3.5
      vertex -5.3125 7.6875 1.75
    endloop
  endfacet
  facet normal -1 0 0
    outer loop
      vertex -1.25 7.6875 1.75
      vertex -1.25 8.3125 3.5
      vertex -1.25 8.3125 1.75
    endloop
  endfacet
  facet normal -1 -0 0
    outer loop
      vertex -1.25 8.3125 3.5
      vertex -1.25 7.6875 1.75
      vertex -1.25 7.6875 3.5
    endloop
  endfacet
  facet normal -0 0 1
    outer loop
      vertex -1.875 8.3125 1.75
      vertex -1.25 7.6875 1.75
      vertex -1.25 8.3125 1.75
    endloop
  endfacet
  facet normal 0 0 1
    outer loop
      vertex -1.25 7.6875 1.75
      vertex -1.875 8.3125 1.75
      vertex -1.875 7.6875 1.75
    endloop
  endfacet
  facet normal 1 -0 0
    outer loop
      vertex -1.875 7.6875 3.5
      vertex -1.875 8.3125 1.75
      vertex -1.875 8.3125 3.5
    endloop
  endfacet
  facet normal 1 0 0
    outer loop
      vertex -1.875 8.3125 1.75
      vertex -1.875 7.6875 3.5
      vertex -1.875 7.6875 1.75
    endloop
  endfacet
  facet normal -1 0 0
    outer loop
      vertex 1.875 7.6875 1.75
      vertex 1.875 8.3125 3.5
      vertex 1.875 8.3125 1.75
    endloop
  endfacet
  facet normal -1 -0 0
    outer loop
      vertex 1.875 8.3125 3.5
      vertex 1.875 7.6875 1.75
      vertex 1.875 7.6875 3.5
    endloop
  endfacet
  facet normal -0 0 1
    outer loop
      vertex 1.25 8.3125 1.75
      vertex 1.875 7.6875 1.75
      vertex 1.875 8.3125 1.75
    endloop
  endfacet
  facet normal 0 0 1
    outer loop
      vertex 1.875 7.6875 1.75
      vertex 1.25 8.3125 1.75
      vertex 1.25 7.6875 1.75
    endloop
  endfacet
  facet normal 1 -0 0
    outer loop
      vertex 1.25 7.6875 3.5
      vertex 1.25 8.3125 1.75
      vertex 1.25 8.3125 3.5
    endloop
  endfacet
  facet normal 1 0 0
    outer loop
      vertex 1.25 8.3125 1.75
      vertex 1.25 7.6875 3.5
      vertex 1.25 7.6875 1.75
    endloop
  endfacet
  facet normal -1 0 0
    outer loop
      vertex 5.3125 7.6875 1.75
      vertex 5.3125 8.3125 3.5
      vertex 5.3125 8.3125 1.75
    endloop
  endfacet
  facet normal -1 -0 0
    outer loop
      vertex 5.3125 8.3125 3.5
      vertex 5.3125 7.6875 1.75
      vertex 5.3125 7.6875 3.5
    endloop
  endfacet
  facet normal -0 0 1
    outer loop
      vertex 4.6875 8.3125 1.75
      vertex 5.3125 7.6875 1.75
      vertex 5.3125 8.3125 1.75
    endloop
  endfacet
  facet normal 0 0 1
    outer loop
      vertex 5.3125 7.6875 1.75
      vertex 4.6875 8.3125 1.75
      vertex 4.6875 7.6875 1.75
    endloop
  endfacet
  facet normal 1 -0 0
    outer loop
      vertex 4.6875 7.6875 3.5
      vertex 4.6875 8.3125 1.75
      vertex 4.6875 8.3125 3.5
    endloop
  endfacet
  facet normal 1 0 0
    outer loop
      vertex 4.6875 8.3125 1.75
      vertex 4.6875 7.6875 3.5
      vertex 4.6875 7.6875 1.75
    endloop
  endfacet
  facet normal -1 0 0
    outer loop
      vertex 9.3125 7.6875 1.75
      vertex 9.3125 8.3125 3.5
      vertex 9.3125 8.3125 1.75
    endloop
  endfacet
  facet normal -1 -0 0
    outer loop
      vertex 9.3125 8.3125 3.5
      vertex 9.3125 7.6875 1.75
      vertex 9.3125 7.6875 3.5
    endloop
  endfacet
  facet normal -0 0 1
    outer loop
      vertex 8.6875 8.3125 1.75
      vertex 9.3125 7.6875 1.75
      vertex 9.3125 8.3125 1.75
    endloop
  endfacet
  facet normal 0 0 1
    outer loop
      vertex 9.3125 7.6875 1.75
      vertex 8.6875 8.3125 1.75
      vertex 8.6875 7.6875 1.75
    endloop
  endfacet
  facet normal 1 -0 0
    outer loop
      vertex 8.6875 7.6875 3.5
      vertex 8.6875 8.3125 1.75
      vertex 8.6875 8.3125 3.5
    endloop
  endfacet
  facet normal 1 0 0
    outer loop
      vertex 8.6875 8.3125 1.75
      vertex 8.6875 7.6875 3.5
      vertex 8.6875 7.6875 1.75
    endloop
  endfacet
  facet normal 1 -0 0
    outer loop
      vertex 12 7.6875 3.5
      vertex 12 8.3125 0
      vertex 12 8.3125 3.5
    endloop
  endfacet
  facet normal 1 0 0
    outer loop
      vertex 12 8.3125 0
      vertex 12 7.6875 3.5
      vertex 12 7.6875 0
    endloop
  endfacet
  facet normal -0 0 1
    outer loop
      vertex -12 8.3125 3.5
      vertex -9.3125 7.6875 3.5
      vertex -9.3125 8.3125 3.5
    endloop
  endfacet
  facet normal 0 0 1
    outer loop
      vertex -9.3125 7.6875 3.5
      vertex -12 8.3125 3.5
      vertex -12 7.6875 3.5
    endloop
  endfacet
  facet normal -0 0 1
    outer loop
      vertex 9.3125 8.3125 3.5
      vertex 12 7.6875 3.5
      vertex 12 8.3125 3.5
    endloop
  endfacet
  facet normal 0 0 1
    outer loop
      vertex 12 7.6875 3.5
      vertex 9.3125 8.3125 3.5
      vertex 9.3125 7.6875 3.5
    endloop
  endfacet
  facet normal -0 0 1
    outer loop
      vertex -8.6875 8.3125 3.5
      vertex -5.3125 7.6875 3.5
      vertex -5.3125 8.3125 3.5
    endloop
  endfacet
  facet normal 0 0 1
    outer loop
      vertex -5.3125 7.6875 3.5
      vertex -8.6875 8.3125 3.5
      vertex -8.6875 7.6875 3.5
    endloop
  endfacet
  facet normal -0 0 1
    outer loop
      vertex -4.6875 8.3125 3.5
      vertex -1.875 7.6875 3.5
      vertex -1.875 8.3125 3.5
    endloop
  endfacet
  facet normal 0 0 1
    outer loop
      vertex -1.875 7.6875 3.5
      vertex -4.6875 8.3125 3.5
      vertex -4.6875 7.6875 3.5
    endloop
  endfacet
  facet normal -0 0 1
    outer loop
      vertex -1.25 8.3125 3.5
      vertex 1.25 7.6875 3.5
      vertex 1.25 8.3125 3.5
    endloop
  endfacet
  facet normal 0 0 1
    outer loop
      vertex 1.25 7.6875 3.5
      vertex -1.25 8.3125 3.5
      vertex -1.25 7.6875 3.5
    endloop
  endfacet
  facet normal -0 0 1
    outer loop
      vertex 1.875 8.3125 3.5
      vertex 4.6875 7.6875 3.5
      vertex 4.6875 8.3125 3.5
    endloop
  endfacet
  facet normal 0 0 1
    outer loop
      vertex 4.6875 7.6875 3.5
      vertex 1.875 8.3125 3.5
      vertex 1.875 7.6875 3.5
    endloop
  endfacet
  facet normal -0 0 1
    outer loop
      vertex 5.3125 8.3125 3.5
      vertex 8.6875 7.6875 3.5
      vertex 8.6875 8.3125 3.5
    endloop
  endfacet
  facet normal 0 0 1
    outer loop
      vertex 8.6875 7.6875 3.5
      vertex 5.3125 8.3125 3.5
      vertex 5.3125 7.6875 3.5
    endloop
  endfacet
  facet normal 0 0 -1
    outer loop
      vertex -12 7.6875 0
      vertex 12 8.3125 0
      vertex 12 7.6875 0
    endloop
  endfacet
  facet normal -0 0 -1
    outer loop
      vertex 12 8.3125 0
      vertex -12 7.6875 0
      vertex -12 8.3125 0
    endloop
  endfacet
  facet normal -1 0 0
    outer loop
      vertex -12 7.6875 0
      vertex -12 8.3125 3.5
      vertex -12 8.3125 0
    endloop
  endfacet
  facet normal -1 -0 0
    outer loop
      vertex -12 8.3125 3.5
      vertex -12 7.6875 0
      vertex -12 7.6875 3.5
    endloop
  endfacet
  facet normal 0 1 0
    outer loop
      vertex 12 8.3125 3.5
      vertex 9.3125 8.3125 1.75
      vertex 9.3125 8.3125 3.5
    endloop
  endfacet
  facet normal 0 1 0
    outer loop
      vertex 12 8.3125 0
      vertex 8.6875 8.3125 1.75
      vertex 9.3125 8.3125 1.75
    endloop
  endfacet
  facet normal 0 1 0
    outer loop
      vertex 8.6875 8.3125 1.75
      vertex 12 8.3125 0
      vertex 5.3125 8.3125 1.75
    endloop
  endfacet
  facet normal 0 1 0
    outer loop
      vertex 5.3125 8.3125 1.75
      vertex 12 8.3125 0
      vertex 4.6875 8.3125 1.75
    endloop
  endfacet
  facet normal 0 1 0
    outer loop
      vertex 4.6875 8.3125 1.75
      vertex 12 8.3125 0
      vertex 1.875 8.3125 1.75
    endloop
  endfacet
  facet normal 0 1 0
    outer loop
      vertex 1.875 8.3125 1.75
      vertex 12 8.3125 0
      vertex 1.25 8.3125 1.75
    endloop
  endfacet
  facet normal 0 1 0
    outer loop
      vertex 1.25 8.3125 1.75
      vertex 12 8.3125 0
      vertex -1.25 8.3125 1.75
    endloop
  endfacet
  facet normal 0 1 0
    outer loop
      vertex -12 8.3125 0
      vertex -1.25 8.3125 1.75
      vertex 12 8.3125 0
    endloop
  endfacet
  facet normal 0 1 0
    outer loop
      vertex -1.25 8.3125 1.75
      vertex -12 8.3125 0
      vertex -1.875 8.3125 1.75
    endloop
  endfacet
  facet normal 0 1 0
    outer loop
      vertex -1.875 8.3125 1.75
      vertex -12 8.3125 0
      vertex -4.6875 8.3125 1.75
    endloop
  endfacet
  facet normal 0 1 0
    outer loop
      vertex -4.6875 8.3125 1.75
      vertex -12 8.3125 0
      vertex -5.3125 8.3125 1.75
    endloop
  endfacet
  facet normal 0 1 0
    outer loop
      vertex -5.3125 8.3125 1.75
      vertex -12 8.3125 0
      vertex -8.6875 8.3125 1.75
    endloop
  endfacet
  facet normal 0 1 -0
    outer loop
      vertex 12 8.3125 0
      vertex 9.3125 8.3125 1.75
      vertex 12 8.3125 3.5
    endloop
  endfacet
  facet normal 0 1 -0
    outer loop
      vertex 8.6875 8.3125 1.75
      vertex 5.3125 8.3125 3.5
      vertex 8.6875 8.3125 3.5
    endloop
  endfacet
  facet normal 0 1 0
    outer loop
      vertex 5.3125 8.3125 3.5
      vertex 8.6875 8.3125 1.75
      vertex 5.3125 8.3125 1.75
    endloop
  endfacet
  facet normal 0 1 -0
    outer loop
      vertex 4.6875 8.3125 1.75
      vertex 1.875 8.3125 3.5
      vertex 4.6875 8.3125 3.5
    endloop
  endfacet
  facet normal 0 1 0
    outer loop
      vertex 1.875 8.3125 3.5
      vertex 4.6875 8.3125 1.75
      vertex 1.875 8.3125 1.75
    endloop
  endfacet
  facet normal 0 1 -0
    outer loop
      vertex 1.25 8.3125 1.75
      vertex -1.25 8.3125 3.5
      vertex 1.25 8.3125 3.5
    endloop
  endfacet
  facet normal 0 1 0
    outer loop
      vertex -1.25 8.3125 3.5
      vertex 1.25 8.3125 1.75
      vertex -1.25 8.3125 1.75
    endloop
  endfacet
  facet normal 0 1 -0
    outer loop
      vertex -1.875 8.3125 1.75
      vertex -4.6875 8.3125 3.5
      vertex -1.875 8.3125 3.5
    endloop
  endfacet
  facet normal 0 1 0
    outer loop
      vertex -4.6875 8.3125 3.5
      vertex -1.875 8.3125 1.75
      vertex -4.6875 8.3125 1.75
    endloop
  endfacet
  facet normal 0 1 -0
    outer loop
      vertex -5.3125 8.3125 1.75
      vertex -8.6875 8.3125 3.5
      vertex -5.3125 8.3125 3.5
    endloop
  endfacet
  facet normal 0 1 0
    outer loop
      vertex -8.6875 8.3125 3.5
      vertex -5.3125 8.3125 1.75
      vertex -8.6875 8.3125 1.75
    endloop
  endfacet
  facet normal 0 1 -0
    outer loop
      vertex -9.3125 8.3125 1.75
      vertex -12 8.3125 3.5
      vertex -9.3125 8.3125 3.5
    endloop
  endfacet
  facet normal 0 1 0
    outer loop
      vertex -9.3125 8.3125 1.75
      vertex -12 8.3125 0
      vertex -12 8.3125 3.5
    endloop
  endfacet
  facet normal 0 1 0
    outer loop
      vertex -8.6875 8.3125 1.75
      vertex -12 8.3125 0
      vertex -9.3125 8.3125 1.75
    endloop
  endfacet
  facet normal 0 -1 0
    outer loop
      vertex -12 7.6875 3.5
      vertex -9.3125 7.6875 1.75
      vertex -9.3125 7.6875 3.5
    endloop
  endfacet
  facet normal 0 -1 0
    outer loop
      vertex -12 7.6875 0
      vertex -8.6875 7.6875 1.75
      vertex -9.3125 7.6875 1.75
    endloop
  endfacet
  facet normal 0 -1 -0
    outer loop
      vertex -8.6875 7.6875 1.75
      vertex -12 7.6875 0
      vertex -5.3125 7.6875 1.75
    endloop
  endfacet
  facet normal 0 -1 -0
    outer loop
      vertex -5.3125 7.6875 1.75
      vertex -12 7.6875 0
      vertex -4.6875 7.6875 1.75
    endloop
  endfacet
  facet normal 0 -1 -0
    outer loop
      vertex -4.6875 7.6875 1.75
      vertex -12 7.6875 0
      vertex -1.875 7.6875 1.75
    endloop
  endfacet
  facet normal 0 -1 -0
    outer loop
      vertex -1.875 7.6875 1.75
      vertex -12 7.6875 0
      vertex -1.25 7.6875 1.75
    endloop
  endfacet
  facet normal 0 -1 -0
    outer loop
      vertex -1.25 7.6875 1.75
      vertex -12 7.6875 0
      vertex 1.25 7.6875 1.75
    endloop
  endfacet
  facet normal 0 -1 0
    outer loop
      vertex 12 7.6875 0
      vertex 1.25 7.6875 1.75
      vertex -12 7.6875 0
    endloop
  endfacet
  facet normal 0 -1 0
    outer loop
      vertex 1.25 7.6875 1.75
      vertex 12 7.6875 0
      vertex 1.875 7.6875 1.75
    endloop
  endfacet
  facet normal 0 -1 0
    outer loop
      vertex 1.875 7.6875 1.75
      vertex 12 7.6875 0
      vertex 4.6875 7.6875 1.75
    endloop
  endfacet
  facet normal 0 -1 0
    outer loop
      vertex 4.6875 7.6875 1.75
      vertex 12 7.6875 0
      vertex 5.3125 7.6875 1.75
    endloop
  endfacet
  facet normal 0 -1 0
    outer loop
      vertex 5.3125 7.6875 1.75
      vertex 12 7.6875 0
      vertex 8.6875 7.6875 1.75
    endloop
  endfacet
  facet normal 0 -1 0
    outer loop
      vertex -12 7.6875 0
      vertex -9.3125 7.6875 1.75
      vertex -12 7.6875 3.5
    endloop
  endfacet
  facet normal 0 -1 0
    outer loop
      vertex -8.6875 7.6875 1.75
      vertex -5.3125 7.6875 3.5
      vertex -8.6875 7.6875 3.5
    endloop
  endfacet
  facet normal 0 -1 -0
    outer loop
      vertex -5.3125 7.6875 3.5
      vertex -8.6875 7.6875 1.75
      vertex -5.3125 7.6875 1.75
    endloop
  endfacet
  facet normal 0 -1 0
    outer loop
      vertex -4.6875 7.6875 1.75
      vertex -1.875 7.6875 3.5
      vertex -4.6875 7.6875 3.5
    endloop
  endfacet
  facet normal 0 -1 -0
    outer loop
      vertex -1.875 7.6875 3.5
      vertex -4.6875 7.6875 1.75
      vertex -1.875 7.6875 1.75
    endloop
  endfacet
  facet normal 0 -1 0
    outer loop
      vertex -1.25 7.6875 1.75
      vertex 1.25 7.6875 3.5
      vertex -1.25 7.6875 3.5
    endloop
  endfacet
  facet normal 0 -1 -0
    outer loop
      vertex 1.25 7.6875 3.5
      vertex -1.25 7.6875 1.75
      vertex 1.25 7.6875 1.75
    endloop
  endfacet
  facet normal 0 -1 0
    outer loop
      vertex 1.875 7.6875 1.75
      vertex 4.6875 7.6875 3.5
      vertex 1.875 7.6875 3.5
    endloop
  endfacet
  facet normal 0 -1 -0
    outer loop
      vertex 4.6875 7.6875 3.5
      vertex 1.875 7.6875 1.75
      vertex 4.6875 7.6875 1.75
    endloop
  endfacet
  facet normal 0 -1 0
    outer loop
      vertex 5.3125 7.6875 1.75
      vertex 8.6875 7.6875 3.5
      vertex 5.3125 7.6875 3.5
    endloop
  endfacet
  facet normal 0 -1 -0
    outer loop
      vertex 8.6875 7.6875 3.5
      vertex 5.3125 7.6875 1.75
      vertex 8.6875 7.6875 1.75
    endloop
  endfacet
  facet normal 0 -1 0
    outer loop
      vertex 9.3125 7.6875 1.75
      vertex 12 7.6875 3.5
      vertex 9.3125 7.6875 3.5
    endloop
  endfacet
  facet normal 0 -1 0
    outer loop
      vertex 9.3125 7.6875 1.75
      vertex 12 7.6875 0
      vertex 12 7.6875 3.5
    endloop
  endfacet
  facet normal 0 -1 0
    outer loop
      vertex 8.6875 7.6875 1.75
      vertex 12 7.6875 0
      vertex 9.3125 7.6875 1.75
    endloop
  endfacet
endsolid OpenSCAD_Model
